<svg width="180" height="180" viewBox="0 0 180 180" fill="none" xmlns="http://www.w3.org/2000/svg">
<mask id="mask0_356_21458" style="mask-type:alpha" maskUnits="userSpaceOnUse" x="4" y="31" width="170" height="116">
<circle cx="62.6307" cy="66.5023" r="24.0727" stroke="black" stroke-width="6.198"/>
<circle cx="136.652" cy="88.579" r="13.8833" stroke="black" stroke-width="6.198"/>
<path d="M170.702 34.2351H173.801C173.801 32.5236 172.413 31.1361 170.702 31.1361V34.2351ZM101.074 34.2351V31.1361C99.3627 31.1361 97.9752 32.5236 97.9752 34.2351H101.074ZM170.702 142.922V146.021C172.413 146.021 173.801 144.633 173.801 142.922H170.702ZM101.074 142.922H97.9752C97.9752 144.633 99.3627 146.021 101.074 146.021V142.922ZM125.698 46.1229V43.0239C123.987 43.0239 122.599 44.4114 122.599 46.1229H125.698ZM112.961 58.8596L112.163 55.8653C110.806 56.227 109.862 57.4556 109.862 58.8596H112.961ZM146.077 46.1229L149.169 45.9167C149.061 44.2888 147.708 43.0239 146.077 43.0239V46.1229ZM158.814 58.8596H161.913C161.913 57.1481 160.525 55.7606 158.814 55.7606V58.8596ZM158.814 115.75L159.02 118.843C160.648 118.734 161.913 117.382 161.913 115.75H158.814ZM146.077 130.185V133.284C147.788 133.284 149.176 131.897 149.176 130.185H146.077ZM125.698 130.185L122.62 130.547C122.804 132.108 124.127 133.284 125.698 133.284V130.185ZM112.961 115.75H109.862C109.862 117.462 111.25 118.849 112.961 118.849V115.75ZM170.702 31.1361H101.074V37.3341H170.702V31.1361ZM173.801 142.922V34.2351H167.603V142.922H173.801ZM101.074 146.021H170.702V139.823H101.074V146.021ZM97.9752 34.2351V142.922H104.173V34.2351H97.9752ZM122.599 46.1229C122.599 48.5584 121.24 50.6578 118.994 52.4426C116.742 54.2324 113.967 55.3842 112.163 55.8653L113.76 61.854C116.201 61.2029 119.795 59.7224 122.85 57.295C125.911 54.8625 128.797 51.1596 128.797 46.1229H122.599ZM146.077 43.0239H125.698V49.2219H146.077V43.0239ZM158.814 55.7606C155.144 55.7606 152.917 54.19 151.478 52.2421C149.942 50.1626 149.28 47.5821 149.169 45.9167L142.985 46.329C143.157 48.9092 144.108 52.6972 146.492 55.9246C148.974 59.2836 152.974 61.9586 158.814 61.9586V55.7606ZM161.913 115.75V58.8596H155.715V115.75H161.913ZM149.176 130.185C149.176 125.672 150.889 123.005 152.839 121.377C154.908 119.65 157.436 118.948 159.02 118.843L158.608 112.658C155.946 112.836 152.105 113.917 148.867 116.619C145.51 119.421 142.978 123.83 142.978 130.185H149.176ZM125.698 133.284H146.077V127.086H125.698V133.284ZM112.961 118.849C116.045 118.849 118.23 120.458 119.852 122.885C121.526 125.39 122.379 128.499 122.62 130.547L128.776 129.823C128.451 127.06 127.351 122.952 125.006 119.442C122.608 115.854 118.709 112.651 112.961 112.651V118.849ZM109.862 58.8596V115.75H116.06V58.8596H109.862Z" fill="black"/>
<path d="M88.1064 109.807V143.771H9.13867C27.4796 98.2585 69.4259 102.164 88.1064 109.807Z" stroke="black" stroke-width="6.198"/>
</mask>
<g mask="url(#mask0_356_21458)">
<rect x="-17.7207" y="-19.4817" width="225.194" height="208.666" fill="url(#paint0_linear_356_21458)"/>
</g>
<defs>
<linearGradient id="paint0_linear_356_21458" x1="-17.7207" y1="189.184" x2="207.487" y2="189.17" gradientUnits="userSpaceOnUse">
<stop offset="0.0184" stop-color="#AE67FA"/>
<stop offset="1" stop-color="#F49867"/>
</linearGradient>
</defs>
</svg>
