<svg width="139" height="138" viewBox="0 0 139 138" fill="none" xmlns="http://www.w3.org/2000/svg">
<g clip-path="url(#clip0_294_1350)">
<path d="M69.5 138C107.608 138 138.5 107.108 138.5 69C138.5 30.8924 107.608 0 69.5 0C31.3924 0 0.5 30.8924 0.5 69C0.5 107.108 31.3924 138 69.5 138Z" fill="white"/>
<path d="M39.0616 42C34.8649 42 31.5 45.365 31.5 49.5619V87.3704C31.5 89.3757 32.2967 91.2994 33.7148 92.7172C35.133 94.1355 37.0563 94.9322 39.0616 94.9322H69.3087V113.836L80.6513 102.494L91.9939 113.836V94.9322H99.5553C101.561 94.9322 103.484 94.1355 104.903 92.7172C106.32 91.2994 107.117 89.3757 107.117 87.3704V60.9045V53.3426V49.5619C107.117 47.5562 106.32 45.6329 104.903 44.2148C103.484 42.7967 101.561 42 99.5553 42H84.432H39.0616ZM69.3087 49.5619L80.6513 57.1233L91.9939 49.5619V62.7946L103.336 68.4659L91.9939 74.1372V87.3704L80.6513 79.8085L69.3087 87.3704V74.1372L57.9661 68.4659L69.3087 62.7946V49.5619ZM39.0616 49.5619H57.9661V57.1233H39.0616V49.5619ZM39.0616 64.6852H50.4042V72.2471H39.0616V64.6852ZM39.0616 79.8085H57.9661V87.3704H39.0616V79.8085Z" fill="url(#paint0_linear_294_1350)"/>
</g>
<defs>
<linearGradient id="paint0_linear_294_1350" x1="31.5" y1="113.836" x2="107.122" y2="113.831" gradientUnits="userSpaceOnUse">
<stop offset="0.0184" stop-color="#AE67FA"/>
<stop offset="1" stop-color="#F49867"/>
</linearGradient>
<clipPath id="clip0_294_1350">
<rect width="138" height="138" fill="white" transform="translate(0.5)"/>
</clipPath>
</defs>
</svg>
