<svg width="24" height="25" viewBox="0 0 24 25" fill="none" xmlns="http://www.w3.org/2000/svg">
<path d="M22 23.3663H2C1.59 23.3663 1.25 23.0189 1.25 22.5999C1.25 22.1809 1.59 21.8335 2 21.8335H22C22.41 21.8335 22.75 22.1809 22.75 22.5999C22.75 23.0189 22.41 23.3663 22 23.3663Z" fill="#81AFDD"/>
<path d="M14.25 23.3663H9.75C9.34 23.3663 9 23.0189 9 22.5999V4.20615C9 2.44853 9.95 1.396 11.55 1.396H12.45C14.05 1.396 15 2.44853 15 4.20615V22.5999C15 23.0189 14.66 23.3663 14.25 23.3663ZM10.5 21.8335H13.5V4.20615C13.5 3.031 12.96 2.92881 12.45 2.92881H11.55C11.04 2.92881 10.5 3.031 10.5 4.20615V21.8335Z" fill="#81AFDD"/>
<path d="M7 23.3664H3C2.59 23.3664 2.25 23.019 2.25 22.6V10.3375C2.25 8.57988 3.13 7.52734 4.6 7.52734H5.4C6.87 7.52734 7.75 8.57988 7.75 10.3375V22.6C7.75 23.019 7.41 23.3664 7 23.3664ZM3.75 21.8336H6.25V10.3375C6.25 9.06016 5.7 9.06016 5.4 9.06016H4.6C4.3 9.06016 3.75 9.06016 3.75 10.3375V21.8336Z" fill="#81AFDD"/>
<path d="M21 23.3664H17C16.59 23.3664 16.25 23.019 16.25 22.6V15.4469C16.25 13.6893 17.13 12.6367 18.6 12.6367H19.4C20.87 12.6367 21.75 13.6893 21.75 15.4469V22.6C21.75 23.019 21.41 23.3664 21 23.3664ZM17.75 21.8336H20.25V15.4469C20.25 14.1695 19.7 14.1695 19.4 14.1695H18.6C18.3 14.1695 17.75 14.1695 17.75 15.4469V21.8336Z" fill="#81AFDD"/>
</svg>
