<svg width="30" height="30" viewBox="0 0 30 30" fill="none" xmlns="http://www.w3.org/2000/svg">
<g clip-path="url(#clip0_497_2864)">
<path d="M18.75 28.4375H11.25C4.4625 28.4375 1.5625 25.5375 1.5625 18.75V11.25C1.5625 4.4625 4.4625 1.5625 11.25 1.5625H13.75C14.2625 1.5625 14.6875 1.9875 14.6875 2.5C14.6875 3.0125 14.2625 3.4375 13.75 3.4375H11.25C5.4875 3.4375 3.4375 5.4875 3.4375 11.25V18.75C3.4375 24.5125 5.4875 26.5625 11.25 26.5625H18.75C24.5125 26.5625 26.5625 24.5125 26.5625 18.75V16.25C26.5625 15.7375 26.9875 15.3125 27.5 15.3125C28.0125 15.3125 28.4375 15.7375 28.4375 16.25V18.75C28.4375 25.5375 25.5375 28.4375 18.75 28.4375Z" fill="#F9F8F8"/>
<path d="M10.6252 22.1117C9.86266 22.1117 9.16266 21.8367 8.65016 21.3367C8.03766 20.7242 7.77516 19.8367 7.91266 18.8992L8.45016 15.1367C8.55016 14.4117 9.02516 13.4742 9.53766 12.9617L19.3877 3.11172C21.8752 0.624219 24.4002 0.624219 26.8877 3.11172C28.2502 4.47422 28.8627 5.86172 28.7377 7.24922C28.6252 8.37422 28.0252 9.47422 26.8877 10.5992L17.0377 20.4492C16.5252 20.9617 15.5877 21.4367 14.8627 21.5367L11.1002 22.0742C10.9377 22.1117 10.7752 22.1117 10.6252 22.1117ZM20.7127 4.43672L10.8627 14.2867C10.6252 14.5242 10.3502 15.0742 10.3002 15.3992L9.76266 19.1617C9.71266 19.5242 9.78766 19.8242 9.97516 20.0117C10.1627 20.1992 10.4627 20.2742 10.8252 20.2242L14.5877 19.6867C14.9127 19.6367 15.4752 19.3617 15.7002 19.1242L25.5502 9.27422C26.3627 8.46172 26.7877 7.73672 26.8502 7.06172C26.9252 6.24922 26.5002 5.38672 25.5502 4.42422C23.5502 2.42422 22.1752 2.98672 20.7127 4.43672Z" fill="#F9F8F8"/>
<path d="M24.8124 12.2869C24.7249 12.2869 24.6374 12.2744 24.5624 12.2494C21.2749 11.3244 18.6624 8.71186 17.7374 5.42436C17.5999 4.92436 17.8874 4.41186 18.3874 4.26186C18.8874 4.12436 19.3999 4.41186 19.5374 4.91186C20.2874 7.57436 22.3999 9.68686 25.0624 10.4369C25.5624 10.5744 25.8499 11.0994 25.7124 11.5994C25.5999 12.0244 25.2249 12.2869 24.8124 12.2869Z" fill="#F9F8F8"/>
</g>
<defs>
<clipPath id="clip0_497_2864">
<rect width="30" height="30" fill="white"/>
</clipPath>
</defs>
</svg>
