<svg width="141" height="140" viewBox="0 0 141 140" fill="none" xmlns="http://www.w3.org/2000/svg">
<g clip-path="url(#clip0_294_1305)">
<g clip-path="url(#clip1_294_1305)">
<path d="M69.5 138C107.608 138 138.5 107.108 138.5 69C138.5 30.8924 107.608 0 69.5 0C31.3924 0 0.5 30.8924 0.5 69C0.5 107.108 31.3924 138 69.5 138Z" fill="white"/>
<path d="M41.9008 103.5L34.9525 94.8198C32.7505 92.067 31.5508 88.6469 31.5508 85.1218V67.275C31.5508 65.9026 32.0961 64.5862 33.0665 63.6157C34.037 62.6452 35.3534 62.1 36.7258 62.1C38.0982 62.1 39.4145 62.6452 40.385 63.6157C41.3555 64.5862 41.9008 65.9026 41.9008 67.275V80.2125" stroke="url(#paint0_linear_294_1305)" stroke-width="5.175" stroke-linecap="round" stroke-linejoin="round"/>
<path d="M57.4238 103.5V92.6841C57.4252 89.6141 56.5163 86.6126 54.8122 84.0591L50.8723 78.1596C50.5361 77.599 50.0896 77.1125 49.5599 76.7296C49.0303 76.3466 48.4283 76.0751 47.7907 75.9316C47.153 75.7881 46.4928 75.7755 45.8501 75.8945C45.2074 76.0135 44.5955 76.2619 44.0516 76.6244C43.0739 77.2781 42.3682 78.2662 42.0672 79.4032C41.7662 80.5401 41.8902 81.748 42.4163 82.7999L47.0807 90.5624" stroke="url(#paint1_linear_294_1305)" stroke-width="5.175" stroke-linecap="round" stroke-linejoin="round"/>
<path d="M98.8242 103.5L105.773 94.8163C107.974 92.0636 109.174 88.6434 109.174 85.1184V67.275C109.174 65.9026 108.629 64.5862 107.658 63.6157C106.688 62.6452 105.372 62.1 103.999 62.1C102.627 62.1 101.31 62.6452 100.34 63.6157C99.3695 64.5862 98.8242 65.9026 98.8242 67.275V80.2125" stroke="url(#paint2_linear_294_1305)" stroke-width="5.175" stroke-linecap="round" stroke-linejoin="round"/>
<path d="M83.3008 103.5V92.6842C83.2994 89.6142 84.2083 86.6127 85.9124 84.0592L89.8523 78.1528C90.1885 77.5921 90.635 77.1057 91.1647 76.7227C91.6943 76.3398 92.2963 76.0683 92.9339 75.9248C93.5716 75.7812 94.2318 75.7687 94.8745 75.8877C95.5172 76.0067 96.1291 76.2551 96.673 76.6175C97.6524 77.2715 98.3592 78.2608 98.6604 79.3993C98.9615 80.5379 98.8363 81.7472 98.3083 82.7999L93.6439 90.5624" stroke="url(#paint3_linear_294_1305)" stroke-width="5.175" stroke-linecap="round" stroke-linejoin="round"/>
<path d="M69.9844 24.15V29.4123" stroke="url(#paint4_linear_294_1305)" stroke-width="3.45" stroke-linecap="round" stroke-linejoin="round"/>
<path d="M53.1133 32.8151L56.8355 36.5373" stroke="url(#paint5_linear_294_1305)" stroke-width="3.45" stroke-linecap="round" stroke-linejoin="round"/>
<path d="M86.8648 32.8151L83.1426 36.5373" stroke="url(#paint6_linear_294_1305)" stroke-width="3.45" stroke-linecap="round" stroke-linejoin="round"/>
<path d="M82.175 49.0653L82.175 49.0653C80.8764 46.8707 79.0161 45.081 76.7964 43.8871C74.5769 42.6933 72.0811 42.14 69.5775 42.2852L82.175 49.0653ZM82.175 49.0653C83.4738 51.2601 84.1612 53.7756 84.1617 56.341L82.175 49.0653ZM81.7526 64.292L81.7526 64.2919C83.3216 61.9506 84.1618 59.1796 84.1617 56.3411L81.7526 64.292ZM81.7526 64.292C80.2145 66.5874 78.0469 68.3641 75.5255 69.4028H65.1978C62.9235 68.4664 60.9322 66.9271 59.4319 64.941C57.8984 62.9109 56.9363 60.4915 56.6509 57.9426L81.7526 64.292ZM62.5825 44.7131C64.6554 43.2696 67.074 42.4307 69.5775 42.2853L56.6509 57.9425C56.3656 55.3938 56.768 52.8144 57.814 50.4828C58.86 48.1513 60.5094 46.1568 62.5825 44.7131Z" fill="#E7E9FE" stroke="url(#paint7_linear_294_1305)" stroke-width="1.725"/>
<path d="M62.5996 69H78.1246" stroke="url(#paint8_linear_294_1305)" stroke-width="3.45" stroke-linecap="round" stroke-linejoin="round"/>
<path d="M85.0242 56.341C85.0237 53.6218 84.2952 50.9545 82.9173 48.6261C81.5395 46.2977 79.5644 44.3965 77.205 43.1275C74.8455 41.8584 72.1911 41.2696 69.5275 41.4242C66.8641 41.5789 64.2923 42.4714 62.0896 44.0053C59.8868 45.5394 58.1365 47.657 57.0271 50.1298C55.9178 52.6025 55.4913 55.337 55.7937 58.0385C56.0963 60.7402 57.1161 63.3063 58.7437 65.4609C60.3712 67.6154 62.5447 69.2766 65.0299 70.2653V79.3501H75.6935V70.2653C78.443 69.1708 80.8045 67.2564 82.4691 64.7721C84.1339 62.2877 85.0244 59.3494 85.0242 56.341Z" stroke="url(#paint9_linear_294_1305)" stroke-width="5.175" stroke-linecap="round" stroke-linejoin="round"/>
</g>
</g>
<defs>
<linearGradient id="paint0_linear_294_1305" x1="31.5508" y1="103.5" x2="41.9014" y2="103.5" gradientUnits="userSpaceOnUse">
<stop offset="0.0184" stop-color="#AE67FA"/>
<stop offset="1" stop-color="#F49867"/>
</linearGradient>
<linearGradient id="paint1_linear_294_1305" x1="41.9062" y1="103.5" x2="57.4247" y2="103.499" gradientUnits="userSpaceOnUse">
<stop offset="0.0184" stop-color="#AE67FA"/>
<stop offset="1" stop-color="#F49867"/>
</linearGradient>
<linearGradient id="paint2_linear_294_1305" x1="98.8242" y1="103.5" x2="109.175" y2="103.5" gradientUnits="userSpaceOnUse">
<stop offset="0.0184" stop-color="#AE67FA"/>
<stop offset="1" stop-color="#F49867"/>
</linearGradient>
<linearGradient id="paint3_linear_294_1305" x1="83.3008" y1="103.5" x2="98.8219" y2="103.499" gradientUnits="userSpaceOnUse">
<stop offset="0.0184" stop-color="#AE67FA"/>
<stop offset="1" stop-color="#F49867"/>
</linearGradient>
<linearGradient id="paint4_linear_294_1305" x1="69.9844" y1="29.4123" x2="70.9844" y2="29.4123" gradientUnits="userSpaceOnUse">
<stop offset="0.0184" stop-color="#AE67FA"/>
<stop offset="1" stop-color="#F49867"/>
</linearGradient>
<linearGradient id="paint5_linear_294_1305" x1="53.1133" y1="36.5373" x2="56.8357" y2="36.537" gradientUnits="userSpaceOnUse">
<stop offset="0.0184" stop-color="#AE67FA"/>
<stop offset="1" stop-color="#F49867"/>
</linearGradient>
<linearGradient id="paint6_linear_294_1305" x1="83.1426" y1="36.5373" x2="86.865" y2="36.537" gradientUnits="userSpaceOnUse">
<stop offset="0.0184" stop-color="#AE67FA"/>
<stop offset="1" stop-color="#F49867"/>
</linearGradient>
<linearGradient id="paint7_linear_294_1305" x1="55.6992" y1="70.2653" x2="85.026" y2="70.2635" gradientUnits="userSpaceOnUse">
<stop offset="0.0184" stop-color="#AE67FA"/>
<stop offset="1" stop-color="#F49867"/>
</linearGradient>
<linearGradient id="paint8_linear_294_1305" x1="62.5996" y1="70" x2="78.1255" y2="69.9855" gradientUnits="userSpaceOnUse">
<stop offset="0.0184" stop-color="#AE67FA"/>
<stop offset="1" stop-color="#F49867"/>
</linearGradient>
<linearGradient id="paint9_linear_294_1305" x1="55.6992" y1="79.35" x2="85.026" y2="79.3487" gradientUnits="userSpaceOnUse">
<stop offset="0.0184" stop-color="#AE67FA"/>
<stop offset="1" stop-color="#F49867"/>
</linearGradient>
<clipPath id="clip0_294_1305">
<rect width="140" height="140" fill="white" transform="translate(0.5)"/>
</clipPath>
<clipPath id="clip1_294_1305">
<rect width="138" height="138" fill="white" transform="translate(0.5)"/>
</clipPath>
</defs>
</svg>
