<svg width="48" height="48" viewBox="0 0 48 48" fill="none" xmlns="http://www.w3.org/2000/svg">
<path d="M20.5886 6.6792C25.2947 6.6792 25.8819 6.69652 27.7283 6.78313C29.573 6.86973 30.8288 7.15899 31.9338 7.58855C33.077 8.02851 34.0401 8.62435 35.0031 9.58566C35.8839 10.4515 36.5654 11.4989 37.0002 12.6549C37.4281 13.7583 37.7191 15.0158 37.8057 16.8605C37.8871 18.7069 37.9096 19.2941 37.9096 24.0002C37.9096 28.7063 37.8923 29.2935 37.8057 31.1399C37.7191 32.9846 37.4281 34.2404 37.0002 35.3455C36.5666 36.5021 35.885 37.5498 35.0031 38.4147C34.137 39.2952 33.0897 39.9767 31.9338 40.4118C30.8305 40.8397 29.573 41.1307 27.7283 41.2173C25.8819 41.2987 25.2947 41.3212 20.5886 41.3212C15.8825 41.3212 15.2953 41.3039 13.4489 41.2173C11.6042 41.1307 10.3484 40.8397 9.24332 40.4118C8.08685 39.9779 7.03927 39.2963 6.17404 38.4147C5.29311 37.549 4.61157 36.5016 4.17693 35.3455C3.74737 34.2421 3.45811 32.9846 3.3715 31.1399C3.2901 29.2935 3.26758 28.7063 3.26758 24.0002C3.26758 19.2941 3.2849 18.7069 3.3715 16.8605C3.45811 15.0141 3.74737 13.76 4.17693 12.6549C4.61036 11.4982 5.29206 10.4505 6.17404 9.58566C7.03952 8.70442 8.08702 8.02284 9.24332 7.58855C10.3484 7.15899 11.6024 6.86973 13.4489 6.78313C15.2953 6.70172 15.8825 6.6792 20.5886 6.6792ZM20.5886 15.3397C18.2917 15.3397 16.0888 16.2521 14.4647 17.8763C12.8405 19.5005 11.9281 21.7033 11.9281 24.0002C11.9281 26.2971 12.8405 28.4999 14.4647 30.1241C16.0888 31.7483 18.2917 32.6607 20.5886 32.6607C22.8855 32.6607 25.0883 31.7483 26.7125 30.1241C28.3366 28.4999 29.2491 26.2971 29.2491 24.0002C29.2491 21.7033 28.3366 19.5005 26.7125 17.8763C25.0883 16.2521 22.8855 15.3397 20.5886 15.3397ZM31.8472 14.9067C31.8472 14.3324 31.6191 13.7817 31.2131 13.3757C30.807 12.9697 30.2563 12.7415 29.6821 12.7415C29.1079 12.7415 28.5572 12.9697 28.1511 13.3757C27.7451 13.7817 27.517 14.3324 27.517 14.9067C27.517 15.4809 27.7451 16.0316 28.1511 16.4376C28.5572 16.8437 29.1079 17.0718 29.6821 17.0718C30.2563 17.0718 30.807 16.8437 31.2131 16.4376C31.6191 16.0316 31.8472 15.4809 31.8472 14.9067ZM20.5886 18.8039C21.9667 18.8039 23.2884 19.3514 24.2629 20.3259C25.2374 21.3004 25.7849 22.6221 25.7849 24.0002C25.7849 25.3783 25.2374 26.7 24.2629 27.6745C23.2884 28.649 21.9667 29.1965 20.5886 29.1965C19.2104 29.1965 17.8887 28.649 16.9142 27.6745C15.9397 26.7 15.3923 25.3783 15.3923 24.0002C15.3923 22.6221 15.9397 21.3004 16.9142 20.3259C17.8887 19.3514 19.2104 18.8039 20.5886 18.8039Z" fill="#F9F8F8"/>
</svg>
