<svg width="48" height="48" viewBox="0 0 48 48" fill="none" xmlns="http://www.w3.org/2000/svg">
<path d="M36.1927 36.2H31.0638V28.1611C31.0638 26.2442 31.0253 23.777 28.3887 23.777C25.7155 23.777 25.3075 25.8632 25.3075 28.0206V36.2H20.1766V19.6699H25.1035V21.9217H25.1708C25.8598 20.6245 27.5342 19.2523 30.0361 19.2523C35.2324 19.2523 36.1947 22.6742 36.1947 27.1257V36.2H36.1927ZM14.3837 17.4086C13.9921 17.4091 13.6044 17.3323 13.2425 17.1827C12.8807 17.033 12.552 16.8134 12.2752 16.5365C11.9985 16.2595 11.7791 15.9307 11.6297 15.5687C11.4802 15.2068 11.4037 14.819 11.4045 14.4275C11.4049 13.8382 11.58 13.2623 11.9076 12.7726C12.2353 12.2829 12.7008 11.9014 13.2454 11.6762C13.7899 11.4511 14.3889 11.3925 14.9668 11.5078C15.5446 11.6231 16.0753 11.9072 16.4917 12.3241C16.908 12.741 17.1914 13.2721 17.306 13.8501C17.4206 14.428 17.3612 15.027 17.1354 15.5713C16.9095 16.1155 16.5274 16.5805 16.0372 16.9076C15.5471 17.2346 14.971 17.409 14.3818 17.4086H14.3837ZM16.9549 36.2H11.8106V19.6699H16.9568V36.2H16.9549ZM38.762 6.6792H9.23742C7.82095 6.6792 6.67969 7.79544 6.67969 9.17535V38.8251C6.67969 40.205 7.82287 41.3212 9.2355 41.3212H38.7543C40.167 41.3212 41.3217 40.205 41.3217 38.8251V9.17535C41.3217 7.79544 40.167 6.6792 38.7543 6.6792H38.7601H38.762Z" fill="#F9F8F8"/>
</svg>
