<svg width="100" height="100" viewBox="0 0 100 100" fill="none" xmlns="http://www.w3.org/2000/svg">
<circle cx="50" cy="50" r="49" fill="#0D162F" stroke="url(#paint0_linear_6_5)" stroke-width="2"/>
<path d="M39.4354 56.0835H41.5957L42.3614 55.3452C40.6524 53.3598 39.4034 51.0211 38.7038 48.4966C38.0041 45.9721 37.8711 43.3242 38.3142 40.7423C39.5995 33.1401 45.9438 27.0692 53.6007 26.1394C56.2926 25.7989 59.0268 26.0787 61.5939 26.9573C64.1611 27.836 66.4932 29.2903 68.4119 31.209C70.3305 33.1276 71.7848 35.4597 72.6635 38.0269C73.5422 40.5941 73.822 43.3282 73.4814 46.0201C72.5516 53.6771 66.4808 60.0214 58.8785 61.3066C56.2966 61.7498 53.6487 61.6168 51.1242 60.9171C48.5997 60.2174 46.2611 58.9684 44.2757 57.2594L43.5373 58.0251V60.1855L31.9152 71.8076C30.794 72.9288 28.9618 72.9288 27.8406 71.8076C26.7194 70.6864 26.7194 68.8542 27.8406 67.733L39.4354 56.0835ZM55.8431 56.0835C62.6523 56.0835 68.1489 50.5869 68.1489 43.7777C68.1489 36.9685 62.6523 31.472 55.8431 31.472C49.0339 31.472 43.5373 36.9685 43.5373 43.7777C43.5373 50.5869 49.0339 56.0835 55.8431 56.0835Z" fill="url(#paint1_linear_6_5)"/>
<defs>
<linearGradient id="paint0_linear_6_5" x1="-7.8027e-10" y1="100" x2="100.006" y2="99.994" gradientUnits="userSpaceOnUse">
<stop offset="0.0184" stop-color="#AE67FA"/>
<stop offset="1" stop-color="#F49867"/>
</linearGradient>
<linearGradient id="paint1_linear_6_5" x1="73.6221" y1="72.6485" x2="26.9969" y2="72.6457" gradientUnits="userSpaceOnUse">
<stop offset="0.0184" stop-color="#AE67FA"/>
<stop offset="1" stop-color="#F49867"/>
</linearGradient>
</defs>
</svg>
