<svg width="100" height="100" viewBox="0 0 100 100" fill="none" xmlns="http://www.w3.org/2000/svg">
<circle cx="50" cy="50" r="49" fill="#0D162F" stroke="url(#paint0_linear_6_19)" stroke-width="2"/>
<path d="M50 23.1205C47.5693 23.1205 45.45 25.4818 45.45 28.6038C45.45 31.7258 47.5693 34.0872 50 34.0872C52.4308 34.0872 54.55 31.7258 54.55 28.6038C54.55 25.4818 52.4308 23.1205 50 23.1205ZM32.9968 25.6794L31.0146 26.6707C32.7549 29.2545 34.7728 32.1555 36.8199 34.7145C39.1191 37.5884 41.4808 39.9701 43.0029 40.7312L43.5833 41.0215V45.6272C46.7485 46.0482 49.0102 46.2085 51.5021 46.1044C51.4251 46.0472 51.3485 45.9901 51.2746 45.9317C50.7012 45.4791 50.2036 44.9744 49.8163 44.4319C49.1314 44.3634 48.5823 43.9216 48.2539 43.4227C47.8965 42.8802 47.7207 42.2278 47.7207 41.5255C47.7207 40.8231 47.8965 40.1707 48.2539 39.628C48.6113 39.0855 49.2297 38.6088 50 38.6088C50.7704 38.6088 51.3887 39.0854 51.7462 39.628C52.1035 40.1707 52.2793 40.8231 52.2793 41.5255C52.2793 42.2278 52.1035 42.8802 51.7462 43.4228C51.7392 43.4338 51.731 43.4444 51.7237 43.4551C51.9477 43.7302 52.2295 44.0102 52.5758 44.2835C53.3088 44.8624 54.2933 45.3871 55.4633 45.7605C55.7724 45.7227 56.0893 45.6823 56.4167 45.6391V41.0215L56.9971 40.7312C58.5194 39.97 60.8809 37.5882 63.1802 34.7144C65.2272 32.1554 67.2451 29.2544 68.9855 26.6705L67.0034 25.6793C61.5577 31.103 56.0424 36.1872 50 36.1872C43.9576 36.1872 38.4422 31.103 32.9968 25.6794ZM36.3911 46.6713L37.8088 53.7603C49.5988 54.8525 50.4012 54.8525 62.1912 53.7603L63.6084 46.6747C50.7657 48.7103 49.2327 48.677 36.3912 46.6712L36.3911 46.6713ZM40.9695 56.1604L42.527 68.6204H57.4732L59.0305 56.1604C51.1251 56.8641 48.875 56.8641 40.9695 56.1604ZM36.1167 70.7205V73.0538H63.8833V70.7205H36.1167ZM22 75.0372V77.1372H78V75.0372H22Z" fill="url(#paint1_linear_6_19)"/>
<defs>
<linearGradient id="paint0_linear_6_19" x1="-7.8027e-10" y1="100" x2="100.006" y2="99.994" gradientUnits="userSpaceOnUse">
<stop offset="0.0184" stop-color="#AE67FA"/>
<stop offset="1" stop-color="#F49867"/>
</linearGradient>
<linearGradient id="paint1_linear_6_19" x1="22" y1="77.1371" x2="78.0034" y2="77.1336" gradientUnits="userSpaceOnUse">
<stop offset="0.0184" stop-color="#AE67FA"/>
<stop offset="1" stop-color="#F49867"/>
</linearGradient>
</defs>
</svg>
