<svg width="100" height="100" viewBox="0 0 100 100" fill="none" xmlns="http://www.w3.org/2000/svg">
<circle cx="50" cy="50" r="49" fill="#0D162F" stroke="url(#paint0_linear_6_21)" stroke-width="2"/>
<path d="M46.8539 22C58.6239 22 68.1149 31.21 68.7081 42.7927L74.7023 50.6914C75.4516 51.6592 74.7023 53.2202 73.3911 53.2202H68.7081V62.5863C68.7081 66.0517 65.9295 68.8303 62.464 68.8303H59.342V78.1964H37.4878V63.5541C30.0886 60.0575 24.9997 52.5958 24.9997 43.8542C24.9997 31.8032 34.7404 22 46.8539 22ZM34.1785 42.5117L40.2976 44.1351L35.8019 48.6621C35.2776 49.1887 34.9833 49.9015 34.9833 50.6446C34.9833 51.3876 35.2776 52.1005 35.8019 52.627C36.3285 53.1513 37.0413 53.4457 37.7844 53.4457C38.5275 53.4457 39.2403 53.1513 39.7669 52.627L44.325 48.1313L45.9173 54.2505C46.2919 55.7803 47.8529 56.6545 49.3203 56.2486C49.6787 56.1572 50.0153 55.9954 50.3105 55.7725C50.6057 55.5497 50.8535 55.2702 51.0395 54.9505C51.2255 54.6308 51.346 54.2773 51.3939 53.9105C51.4418 53.5437 51.4161 53.1711 51.3184 52.8144L49.6637 46.664L55.8141 48.3187C56.1709 48.4186 56.544 48.4459 56.9115 48.399C57.279 48.3521 57.6334 48.2319 57.9536 48.0456C58.2739 47.8593 58.5534 47.6106 58.7758 47.3143C58.9982 47.018 59.1589 46.6801 59.2483 46.3206C59.6542 44.8532 58.78 43.2922 57.2502 42.9176L51.1311 41.3253L55.6268 36.7672C56.0965 36.2307 56.3447 35.5358 56.321 34.8232C56.2974 34.1105 56.0038 33.4335 55.4996 32.9294C54.9954 32.4252 54.3184 32.1316 53.6058 32.1079C52.8932 32.0843 52.1983 32.3325 51.6618 32.8022L47.1349 37.2979L45.5114 31.1787C45.4239 30.8279 45.2679 30.4977 45.0525 30.2072C44.8371 29.9168 44.5664 29.6717 44.256 29.486C43.9457 29.3004 43.6017 29.1779 43.2439 29.1255C42.8861 29.0731 42.5214 29.0918 42.1709 29.1807C40.6098 29.5865 39.7357 31.1163 40.1103 32.6461L41.765 38.7653L35.6458 37.1106C35.283 37.017 34.9051 36.9961 34.5342 37.0491C34.1632 37.1022 33.8064 37.2281 33.4843 37.4196C33.1621 37.6111 32.8811 37.8645 32.6573 38.1651C32.4335 38.4657 32.2715 38.8076 32.1804 39.1711C32.0915 39.5217 32.0728 39.8863 32.1252 40.2442C32.1776 40.602 32.3001 40.9459 32.4858 41.2563C32.6714 41.5667 32.9165 41.8373 33.207 42.0528C33.4974 42.2682 33.8276 42.4241 34.1785 42.5117Z" fill="url(#paint1_linear_6_21)"/>
<defs>
<linearGradient id="paint0_linear_6_21" x1="-7.8027e-10" y1="100" x2="100.006" y2="99.994" gradientUnits="userSpaceOnUse">
<stop offset="0.0184" stop-color="#AE67FA"/>
<stop offset="1" stop-color="#F49867"/>
</linearGradient>
<linearGradient id="paint1_linear_6_21" x1="75" y1="78.1964" x2="24.9967" y2="78.1937" gradientUnits="userSpaceOnUse">
<stop offset="0.0184" stop-color="#AE67FA"/>
<stop offset="1" stop-color="#F49867"/>
</linearGradient>
</defs>
</svg>
