<svg width="248" height="139" viewBox="0 0 248 139" fill="none" xmlns="http://www.w3.org/2000/svg">
<g filter="url(#filter0_b_499_537)">
<g opacity="0.5" filter="url(#filter1_b_499_537)">
<rect width="248" height="139" fill="#7FD8FF"/>
</g>
<path d="M85.4397 115.108V101.108H87.7397V115.108H85.4397ZM87.0197 115.108V113.008H94.3397V115.108H87.0197ZM101.802 115.308C100.802 115.308 99.8682 115.122 99.0015 114.748C98.1349 114.375 97.3749 113.862 96.7215 113.208C96.0682 112.542 95.5549 111.775 95.1815 110.908C94.8215 110.028 94.6415 109.088 94.6415 108.088C94.6415 107.088 94.8215 106.155 95.1815 105.288C95.5549 104.422 96.0615 103.662 96.7015 103.008C97.3549 102.342 98.1082 101.828 98.9615 101.468C99.8282 101.095 100.762 100.908 101.762 100.908C102.762 100.908 103.688 101.095 104.542 101.468C105.408 101.828 106.168 102.342 106.822 103.008C107.475 103.662 107.982 104.428 108.342 105.308C108.715 106.175 108.902 107.108 108.902 108.108C108.902 109.108 108.715 110.048 108.342 110.928C107.982 111.795 107.475 112.555 106.822 113.208C106.182 113.862 105.428 114.375 104.562 114.748C103.708 115.122 102.788 115.308 101.802 115.308ZM101.762 113.108C102.708 113.108 103.535 112.895 104.242 112.468C104.962 112.042 105.522 111.455 105.922 110.708C106.335 109.948 106.542 109.075 106.542 108.088C106.542 107.355 106.422 106.688 106.182 106.088C105.955 105.475 105.628 104.948 105.202 104.508C104.775 104.055 104.268 103.708 103.682 103.468C103.108 103.228 102.468 103.108 101.762 103.108C100.828 103.108 100.002 103.322 99.2815 103.748C98.5749 104.162 98.0149 104.742 97.6015 105.488C97.2015 106.235 97.0015 107.102 97.0015 108.088C97.0015 108.822 97.1149 109.502 97.3415 110.128C97.5815 110.742 97.9082 111.268 98.3215 111.708C98.7482 112.148 99.2549 112.495 99.8415 112.748C100.428 112.988 101.068 113.108 101.762 113.108ZM117.757 115.308C116.743 115.308 115.803 115.128 114.937 114.768C114.083 114.395 113.337 113.882 112.697 113.228C112.057 112.562 111.563 111.795 111.217 110.928C110.87 110.048 110.697 109.108 110.697 108.108C110.697 107.108 110.87 106.175 111.217 105.308C111.563 104.428 112.057 103.662 112.697 103.008C113.337 102.355 114.083 101.842 114.937 101.468C115.803 101.095 116.743 100.908 117.757 100.908C118.89 100.908 119.87 101.095 120.697 101.468C121.523 101.842 122.257 102.348 122.897 102.988L121.337 104.548C120.923 104.095 120.417 103.742 119.817 103.488C119.23 103.235 118.543 103.108 117.757 103.108C117.063 103.108 116.43 103.228 115.857 103.468C115.283 103.708 114.783 104.055 114.357 104.508C113.943 104.948 113.623 105.475 113.397 106.088C113.17 106.702 113.057 107.375 113.057 108.108C113.057 108.842 113.17 109.515 113.397 110.128C113.623 110.742 113.943 111.275 114.357 111.728C114.783 112.168 115.283 112.508 115.857 112.748C116.43 112.988 117.063 113.108 117.757 113.108C118.61 113.108 119.33 112.982 119.917 112.728C120.517 112.462 121.023 112.102 121.437 111.648L122.997 113.208C122.357 113.862 121.603 114.375 120.737 114.748C119.87 115.122 118.877 115.308 117.757 115.308ZM133.509 115.108L127.029 107.808L133.369 101.108H136.309L129.309 108.388L129.329 107.128L136.509 115.108H133.509ZM125.049 115.108V101.108H127.349V115.108H125.049ZM138.135 115.108V101.108H140.435V115.108H138.135ZM139.715 115.108V113.008H147.555V115.108H139.715ZM139.715 108.968V106.948H146.875V108.968H139.715ZM139.715 103.208V101.108H147.455V103.208H139.715ZM151.512 115.108V113.008H155.192C156.152 113.008 156.992 112.802 157.712 112.388C158.445 111.975 159.012 111.402 159.412 110.668C159.825 109.922 160.032 109.062 160.032 108.088C160.032 107.128 159.825 106.282 159.412 105.548C158.999 104.815 158.425 104.242 157.692 103.828C156.972 103.415 156.139 103.208 155.192 103.208H151.512V101.108H155.252C156.265 101.108 157.205 101.288 158.072 101.648C158.939 101.995 159.692 102.488 160.332 103.128C160.985 103.755 161.492 104.495 161.852 105.348C162.212 106.188 162.392 107.108 162.392 108.108C162.392 109.095 162.212 110.015 161.852 110.868C161.492 111.722 160.992 112.468 160.352 113.108C159.712 113.735 158.959 114.228 158.092 114.588C157.225 114.935 156.292 115.108 155.292 115.108H151.512ZM149.932 115.108V101.108H152.232V115.108H149.932Z" fill="#F9F8F8"/>
<path d="M142.333 54.8125H138.667V43.75C138.667 35.6375 132.067 29 124 29C115.933 29 109.333 35.6375 109.333 43.75V54.8125H105.667C103.833 54.8125 102 56.6563 102 58.5V84.3125C102 86.1563 103.833 88 105.667 88H142.333C144.167 88 146 86.1563 146 84.3125V58.5C146 56.6563 144.167 54.8125 142.333 54.8125ZM127.667 80.625H120.333L121.8 72.5125C119.967 71.775 118.5 69.5625 118.5 67.7188C118.5 64.7688 121.067 62.1875 124 62.1875C126.933 62.1875 129.5 64.7688 129.5 67.7188C129.5 69.9313 128.4 71.775 126.2 72.5125L127.667 80.625ZM131.333 54.8125H116.667V43.75C116.667 39.6938 119.967 36.375 124 36.375C128.033 36.375 131.333 39.6938 131.333 43.75V54.8125Z" fill="#F9F8F8"/>
</g>
<defs>
<filter id="filter0_b_499_537" x="-5.24762" y="-5.24762" width="258.495" height="149.495" filterUnits="userSpaceOnUse" color-interpolation-filters="sRGB">
<feFlood flood-opacity="0" result="BackgroundImageFix"/>
<feGaussianBlur in="BackgroundImageFix" stdDeviation="2.62381"/>
<feComposite in2="SourceAlpha" operator="in" result="effect1_backgroundBlur_499_537"/>
<feBlend mode="normal" in="SourceGraphic" in2="effect1_backgroundBlur_499_537" result="shape"/>
</filter>
<filter id="filter1_b_499_537" x="-2.33228" y="-2.33228" width="252.665" height="143.665" filterUnits="userSpaceOnUse" color-interpolation-filters="sRGB">
<feFlood flood-opacity="0" result="BackgroundImageFix"/>
<feGaussianBlur in="BackgroundImageFix" stdDeviation="1.16614"/>
<feComposite in2="SourceAlpha" operator="in" result="effect1_backgroundBlur_499_537"/>
<feBlend mode="normal" in="SourceGraphic" in2="effect1_backgroundBlur_499_537" result="shape"/>
</filter>
</defs>
</svg>
