<svg width="115" height="77" viewBox="0 0 115 77" fill="none" xmlns="http://www.w3.org/2000/svg">
<path d="M75.6744 43.3213C76.3944 43.7399 76.0975 44.8414 75.2647 44.8414L39.7332 44.8414C38.9004 44.8414 38.6035 43.7399 39.3235 43.3213L51.4184 36.2893C53.265 35.2157 55.3629 34.6502 57.499 34.6502C59.635 34.6502 61.7329 35.2157 63.5795 36.2893L75.6744 43.3213Z" fill="#F9F8F8"/>
<path d="M57.4995 18.142V31.7966L55.9893 30.827C55.1757 30.4103 54.296 30.1459 53.3891 30.0538L49.6523 29.6691C49.0178 29.601 48.5312 29.0521 48.5312 28.391V17.1804C48.5312 16.4713 49.0879 15.8983 49.7768 15.8983H50.9563C53.4319 15.8983 55.4716 16.6836 57.4995 18.142ZM57.4995 31.7966V18.142C59.5275 16.6836 61.5672 15.8983 64.0428 15.8983H65.2222C65.9112 15.8983 66.4678 16.4713 66.4678 17.1804V28.391C66.4678 29.0481 65.9813 29.601 65.3468 29.6651L61.61 30.0497C60.7069 30.1419 59.8233 30.4063 59.0098 30.823L57.4995 31.7966Z" fill="#F9F8F8"/>
<mask id="path-3-outside-1_294_1359" maskUnits="userSpaceOnUse" x="41.418" y="8.78357" width="32" height="26" fill="black">
<rect fill="white" x="41.418" y="8.78357" width="32" height="26"/>
<path fill-rule="evenodd" clip-rule="evenodd" d="M46.0199 11.4142H68.9821C69.9767 11.4142 70.7831 12.1442 70.7831 13.0448V30.5737C70.7831 31.107 70.5003 31.5804 70.0632 31.8779C69.7309 32.1041 69.4384 32.4354 69.4384 32.8373C69.4384 33.3551 69.8964 33.7647 70.3802 33.5801C71.6751 33.0859 72.584 31.9259 72.584 30.5737V13.0448C72.584 11.2437 70.9714 9.78357 68.9821 9.78357H46.0199C44.0306 9.78357 42.418 11.2437 42.418 13.0448V30.5737C42.418 31.9313 43.3343 33.0952 44.6375 33.5861C45.1202 33.7678 45.5757 33.3591 45.5757 32.8434C45.5757 32.4401 45.2808 32.1082 44.9463 31.883C44.5049 31.5859 44.2189 31.11 44.2189 30.5737V13.0448C44.2189 12.1442 45.0252 11.4142 46.0199 11.4142Z"/>
</mask>
<path fill-rule="evenodd" clip-rule="evenodd" d="M46.0199 11.4142H68.9821C69.9767 11.4142 70.7831 12.1442 70.7831 13.0448V30.5737C70.7831 31.107 70.5003 31.5804 70.0632 31.8779C69.7309 32.1041 69.4384 32.4354 69.4384 32.8373C69.4384 33.3551 69.8964 33.7647 70.3802 33.5801C71.6751 33.0859 72.584 31.9259 72.584 30.5737V13.0448C72.584 11.2437 70.9714 9.78357 68.9821 9.78357H46.0199C44.0306 9.78357 42.418 11.2437 42.418 13.0448V30.5737C42.418 31.9313 43.3343 33.0952 44.6375 33.5861C45.1202 33.7678 45.5757 33.3591 45.5757 32.8434C45.5757 32.4401 45.2808 32.1082 44.9463 31.883C44.5049 31.5859 44.2189 31.11 44.2189 30.5737V13.0448C44.2189 12.1442 45.0252 11.4142 46.0199 11.4142Z" fill="#F9F8F8"/>
<path d="M44.9463 31.883L45.2195 31.4772L44.9463 31.883ZM44.6375 33.5861L44.4651 34.0438L44.6375 33.5861ZM70.3802 33.5801L70.5546 34.0371L70.3802 33.5801ZM70.0632 31.8779L69.7879 31.4735L70.0632 31.8779ZM68.9821 10.925H46.0199V11.9033H68.9821V10.925ZM71.2722 13.0448C71.2722 11.8294 70.2 10.925 68.9821 10.925V11.9033C69.7534 11.9033 70.2939 12.459 70.2939 13.0448H71.2722ZM71.2722 30.5737V13.0448H70.2939V30.5737H71.2722ZM70.3384 32.2824C70.8926 31.9052 71.2722 31.2882 71.2722 30.5737H70.2939C70.2939 30.9257 70.1081 31.2557 69.7879 31.4735L70.3384 32.2824ZM70.5546 34.0371C72.0097 33.4817 73.0732 32.1584 73.0732 30.5737H72.0948C72.0948 31.6933 71.3404 32.69 70.2057 33.1231L70.5546 34.0371ZM73.0732 30.5737V13.0448H72.0948V30.5737H73.0732ZM73.0732 13.0448C73.0732 10.9289 71.1947 9.29439 68.9821 9.29439V10.2727C70.7481 10.2727 72.0948 11.5584 72.0948 13.0448H73.0732ZM68.9821 9.29439H46.0199V10.2727H68.9821V9.29439ZM46.0199 9.29439C43.8073 9.29439 41.9288 10.9289 41.9288 13.0448H42.9071C42.9071 11.5584 44.2539 10.2727 46.0199 10.2727V9.29439ZM41.9288 13.0448V30.5737H42.9071V13.0448H41.9288ZM41.9288 30.5737C41.9288 32.1649 43.0008 33.4924 44.4651 34.0438L44.8099 33.1283C43.6677 32.6981 42.9071 31.6978 42.9071 30.5737H41.9288ZM43.7297 30.5737C43.7297 31.2923 44.1138 31.9122 44.6732 32.2888L45.2195 31.4772C44.896 31.2595 44.7081 30.9277 44.7081 30.5737H43.7297ZM43.7297 13.0448V30.5737H44.7081V13.0448H43.7297ZM46.0199 10.925C44.8019 10.925 43.7297 11.8294 43.7297 13.0448H44.7081C44.7081 12.459 45.2485 11.9033 46.0199 11.9033V10.925ZM46.0648 32.8434C46.0648 32.1923 45.5986 31.7324 45.2195 31.4772L44.6732 32.2888C44.9631 32.484 45.0865 32.6879 45.0865 32.8434H46.0648ZM44.4651 34.0438C44.885 34.202 45.3021 34.0989 45.5992 33.8534C45.8885 33.6144 46.0648 33.2437 46.0648 32.8434H45.0865C45.0865 32.9588 45.0351 33.0504 44.976 33.0992C44.9247 33.1416 44.8727 33.1519 44.8099 33.1283L44.4651 34.0438ZM68.9492 32.8373C68.9492 33.2389 69.1264 33.6106 69.417 33.8498C69.7153 34.0954 70.134 34.1977 70.5546 34.0371L70.2057 33.1231C70.1426 33.1472 70.0904 33.1369 70.0388 33.0944C69.9793 33.0455 69.9275 32.9534 69.9275 32.8373H68.9492ZM69.7879 31.4735C69.4116 31.7296 68.9492 32.1889 68.9492 32.8373H69.9275C69.9275 32.6819 70.0502 32.4785 70.3384 32.2824L69.7879 31.4735Z" fill="#F9F8F8" mask="url(#path-3-outside-1_294_1359)"/>
<path d="M7.94857 60.1809C7.15737 60.1809 6.44282 60.0424 5.80491 59.7655C5.17195 59.4837 4.65026 59.0831 4.23982 58.5639C3.83433 58.0397 3.57719 57.4166 3.4684 56.6947L5.57497 56.3831C5.72332 56.9963 6.02991 57.4686 6.49474 57.7999C6.95957 58.1312 7.48868 58.2969 8.08208 58.2969C8.4134 58.2969 8.73482 58.2449 9.04636 58.1411C9.35789 58.0372 9.61256 57.8839 9.81036 57.6812C10.0131 57.4785 10.1145 57.2287 10.1145 56.932C10.1145 56.8232 10.0972 56.7194 10.0626 56.6205C10.0329 56.5167 9.98097 56.4202 9.90679 56.3312C9.83261 56.2422 9.7263 56.1581 9.58784 56.079C9.45432 55.9999 9.28372 55.9282 9.07603 55.8639L6.30188 55.048C6.09419 54.9886 5.85189 54.9046 5.57497 54.7958C5.30299 54.687 5.03844 54.5312 4.7813 54.3285C4.52416 54.1257 4.30905 53.8587 4.13597 53.5274C3.96784 53.1911 3.88378 52.7683 3.88378 52.259C3.88378 51.542 4.06427 50.9461 4.42526 50.4714C4.78624 49.9967 5.26838 49.6431 5.87167 49.4107C6.47496 49.1783 7.14253 49.0645 7.87439 49.0695C8.6112 49.0794 9.26888 49.2055 9.84745 49.4478C10.426 49.6901 10.9106 50.0436 11.3013 50.5085C11.6919 50.9684 11.9738 51.5321 12.1469 52.1997L9.96613 52.5705C9.88701 52.2244 9.74113 51.9326 9.5285 51.6953C9.31586 51.4579 9.06119 51.2774 8.76449 51.1538C8.47274 51.0302 8.16615 50.9634 7.84472 50.9535C7.52824 50.9436 7.22907 50.9881 6.94721 51.087C6.67029 51.181 6.44282 51.3195 6.2648 51.5024C6.09172 51.6854 6.00518 51.903 6.00518 52.1552C6.00518 52.3876 6.07689 52.578 6.22029 52.7263C6.3637 52.8697 6.54419 52.9859 6.76177 53.0749C6.97935 53.1639 7.20187 53.2381 7.42934 53.2975L9.28372 53.8018C9.56064 53.876 9.86723 53.9749 10.2035 54.0985C10.5397 54.2172 10.8612 54.3854 11.1678 54.6029C11.4793 54.8156 11.734 55.0974 11.9318 55.4485C12.1345 55.7996 12.2359 56.2447 12.2359 56.7837C12.2359 57.3573 12.1147 57.8592 11.8724 58.2894C11.6351 58.7147 11.3136 59.0683 10.9082 59.3501C10.5027 59.6271 10.0428 59.8347 9.5285 59.9732C9.01916 60.1117 8.49252 60.1809 7.94857 60.1809ZM13.8662 59.9584V49.2772H15.8838V54.2024L19.9486 49.2772H22.4112L17.9459 54.5436L22.6931 59.9584H20.1414L15.8838 55.0925V59.9584H13.8662ZM23.8804 59.9584V49.2772H25.898V59.9584H23.8804ZM28.2701 59.9584V49.2772H30.2876V58.0743H34.8865V59.9584H28.2701ZM36.2961 59.9584V49.2772H38.3136V58.0743H42.9125V59.9584H36.2961ZM44.322 59.9584V49.2772H46.3396V59.9584H44.322ZM52.91 60.1809C52.0495 60.1809 51.293 60.0078 50.6402 59.6617C49.9875 59.3106 49.4781 58.8186 49.1122 58.1856C48.7463 57.5526 48.5633 56.8084 48.5633 55.9529V49.292L50.6106 49.2772V55.9381C50.6106 56.2892 50.6699 56.6081 50.7886 56.8949C50.9073 57.1818 51.0704 57.429 51.2781 57.6367C51.4908 57.8444 51.7355 58.0051 52.0125 58.1188C52.2943 58.2276 52.5935 58.282 52.91 58.282C53.2363 58.282 53.538 58.2252 53.8149 58.1114C54.0968 57.9977 54.3416 57.837 54.5492 57.6293C54.7569 57.4216 54.9176 57.1743 55.0314 56.8875C55.1501 56.6007 55.2094 56.2842 55.2094 55.9381V49.2772H57.2566V55.9529C57.2566 56.8084 57.0737 57.5526 56.7077 58.1856C56.3418 58.8186 55.8325 59.3106 55.1797 59.6617C54.527 60.0078 53.7704 60.1809 52.91 60.1809ZM59.3274 59.9584V49.2772H61.1373L64.668 56.3683L68.1987 49.2772H70.0086V59.9584H68.1245V53.5793L65.024 59.9584H64.312L61.2114 53.5793V59.9584H59.3274ZM75.2089 59.9584V49.2772H77.2265V58.0743H81.8254V59.9584H75.2089ZM82.3448 59.9584L85.6085 49.2772H88.62L91.8837 59.9584H89.8068L86.8992 50.5381H87.2849L84.4217 59.9584H82.3448ZM84.303 57.7331V55.8491H89.9403V57.7331H84.303ZM93.2132 59.9584V49.2772H97.4857C98.2472 49.2772 98.8629 49.4305 99.3326 49.7371C99.8024 50.0387 100.146 50.4195 100.364 50.8794C100.581 51.3392 100.69 51.8041 100.69 52.2738C100.69 52.8722 100.554 53.3692 100.282 53.7648C100.015 54.1604 99.6466 54.4249 99.1769 54.5584V54.1876C99.8444 54.326 100.344 54.6351 100.675 55.1147C101.011 55.5944 101.18 56.1309 101.18 56.7243C101.18 57.3622 101.061 57.9235 100.824 58.4081C100.591 58.8927 100.235 59.2735 99.7554 59.5504C99.2758 59.8224 98.6725 59.9584 97.9456 59.9584H93.2132ZM95.2604 58.0595H97.7379C98.0098 58.0595 98.2521 58.0026 98.4648 57.8889C98.6774 57.7702 98.8431 57.607 98.9618 57.3993C99.0854 57.1867 99.1472 56.937 99.1472 56.6502C99.1472 56.398 99.0953 56.173 98.9914 55.9752C98.8876 55.7774 98.7293 55.6216 98.5167 55.5079C98.309 55.3892 98.0494 55.3299 97.7379 55.3299H95.2604V58.0595ZM95.2604 53.4458H97.456C97.6835 53.4458 97.8862 53.4062 98.0642 53.3271C98.2423 53.248 98.3832 53.1269 98.487 52.9637C98.5909 52.7955 98.6428 52.5804 98.6428 52.3183C98.6428 51.992 98.5414 51.7175 98.3387 51.495C98.1359 51.2725 97.8417 51.1612 97.456 51.1612H95.2604V53.4458ZM106.694 60.1809C105.903 60.1809 105.188 60.0424 104.55 59.7655C103.917 59.4837 103.396 59.0831 102.985 58.5639C102.58 58.0397 102.323 57.4166 102.214 56.6947L104.32 56.3831C104.469 56.9963 104.775 57.4686 105.24 57.7999C105.705 58.1312 106.234 58.2969 106.828 58.2969C107.159 58.2969 107.48 58.2449 107.792 58.1411C108.103 58.0372 108.358 57.8839 108.556 57.6812C108.759 57.4785 108.86 57.2287 108.86 56.932C108.86 56.8232 108.843 56.7194 108.808 56.6205C108.778 56.5167 108.726 56.4202 108.652 56.3312C108.578 56.2422 108.472 56.1581 108.333 56.079C108.2 55.9999 108.029 55.9282 107.821 55.8639L105.047 55.048C104.84 54.9886 104.597 54.9046 104.32 54.7958C104.048 54.687 103.784 54.5312 103.527 54.3285C103.27 54.1257 103.055 53.8587 102.881 53.5274C102.713 53.1911 102.629 52.7683 102.629 52.259C102.629 51.542 102.81 50.9461 103.171 50.4714C103.532 49.9967 104.014 49.6431 104.617 49.4107C105.22 49.1783 105.888 49.0645 106.62 49.0695C107.357 49.0794 108.014 49.2055 108.593 49.4478C109.171 49.6901 109.656 50.0436 110.047 50.5085C110.437 50.9684 110.719 51.5321 110.892 52.1997L108.712 52.5705C108.632 52.2244 108.487 51.9326 108.274 51.6953C108.061 51.4579 107.807 51.2774 107.51 51.1538C107.218 51.0302 106.912 50.9634 106.59 50.9535C106.274 50.9436 105.975 50.9881 105.693 51.087C105.416 51.181 105.188 51.3195 105.01 51.5024C104.837 51.6854 104.751 51.903 104.751 52.1552C104.751 52.3876 104.822 52.578 104.966 52.7263C105.109 52.8697 105.29 52.9859 105.507 53.0749C105.725 53.1639 105.947 53.2381 106.175 53.2975L108.029 53.8018C108.306 53.876 108.613 53.9749 108.949 54.0985C109.285 54.2172 109.607 54.3854 109.913 54.6029C110.225 54.8156 110.479 55.0974 110.677 55.4485C110.88 55.7996 110.981 56.2447 110.981 56.7837C110.981 57.3573 110.86 57.8592 110.618 58.2894C110.381 58.7147 110.059 59.0683 109.654 59.3501C109.248 59.6271 108.788 59.8347 108.274 59.9732C107.765 60.1117 107.238 60.1809 106.694 60.1809Z" fill="#F9F8F8"/>
<path d="M13.784 67.3334V64.0214H14.1221V67.3334H13.784ZM16.6056 67.3334V66.0661C16.6056 65.9281 16.5926 65.8016 16.5665 65.6866C16.5405 65.57 16.4983 65.4688 16.44 65.383C16.3833 65.2956 16.3089 65.2281 16.2169 65.1806C16.1265 65.133 16.0161 65.1093 15.8857 65.1093C15.7661 65.1093 15.6603 65.13 15.5683 65.1714C15.4779 65.2128 15.4012 65.2726 15.3383 65.3508C15.277 65.4274 15.2302 65.521 15.198 65.6314C15.1658 65.7418 15.1497 65.8675 15.1497 66.0086L14.9105 65.9557C14.9105 65.7011 14.955 65.4872 15.0439 65.314C15.1329 65.1407 15.2555 65.0096 15.4119 64.9207C15.5683 64.8317 15.7477 64.7873 15.9501 64.7873C16.0989 64.7873 16.2284 64.8103 16.3388 64.8563C16.4508 64.9023 16.5451 64.9644 16.6217 65.0426C16.6999 65.1208 16.7628 65.2105 16.8103 65.3117C16.8579 65.4113 16.8924 65.5179 16.9138 65.6314C16.9353 65.7433 16.946 65.8552 16.946 65.9672V67.3334H16.6056ZM14.8093 67.3334V64.8494H15.1152V65.4612H15.1497V67.3334H14.8093ZM19.3369 67.3334V66.0661C19.3369 65.9281 19.3239 65.8016 19.2978 65.6866C19.2717 65.57 19.2296 65.4688 19.1713 65.383C19.1146 65.2956 19.0402 65.2281 18.9482 65.1806C18.8577 65.133 18.7473 65.1093 18.617 65.1093C18.4974 65.1093 18.3916 65.13 18.2996 65.1714C18.2091 65.2128 18.1325 65.2726 18.0696 65.3508C18.0083 65.4274 17.9615 65.521 17.9293 65.6314C17.8971 65.7418 17.881 65.8675 17.881 66.0086L17.6418 65.9557C17.6418 65.7011 17.6863 65.4872 17.7752 65.314C17.8641 65.1407 17.9868 65.0096 18.1432 64.9207C18.2996 64.8317 18.479 64.7873 18.6814 64.7873C18.8301 64.7873 18.9597 64.8103 19.0701 64.8563C19.182 64.9023 19.2763 64.9644 19.353 65.0426C19.4312 65.1208 19.4941 65.2105 19.5416 65.3117C19.5891 65.4113 19.6236 65.5179 19.6451 65.6314C19.6666 65.7433 19.6773 65.8552 19.6773 65.9672V67.3334H19.3369ZM17.5406 67.3334V64.8494H17.8465V65.4612H17.881V67.3334H17.5406ZM21.298 67.4024C21.0511 67.4024 20.8403 67.3464 20.6655 67.2345C20.4907 67.1225 20.3565 66.9677 20.263 66.7699C20.1694 66.5721 20.1227 66.3451 20.1227 66.0891C20.1227 65.8284 20.1702 65.5999 20.2653 65.4037C20.3603 65.2074 20.4953 65.0548 20.6701 64.946C20.8464 64.8356 21.0557 64.7804 21.298 64.7804C21.5464 64.7804 21.758 64.8363 21.9328 64.9483C22.1091 65.0587 22.2433 65.2128 22.3353 65.4106C22.4288 65.6068 22.4756 65.833 22.4756 66.0891C22.4756 66.3497 22.4288 66.579 22.3353 66.7768C22.2417 66.973 22.1068 67.1264 21.9305 67.2368C21.7541 67.3472 21.5433 67.4024 21.298 67.4024ZM21.298 67.0781C21.574 67.0781 21.7794 66.9868 21.9144 66.8044C22.0493 66.6204 22.1168 66.3819 22.1168 66.0891C22.1168 65.7885 22.0485 65.5493 21.9121 65.3715C21.7771 65.1936 21.5724 65.1047 21.298 65.1047C21.1124 65.1047 20.9591 65.1468 20.838 65.2312C20.7184 65.314 20.6287 65.4297 20.5689 65.5785C20.5106 65.7257 20.4815 65.8959 20.4815 66.0891C20.4815 66.3881 20.5505 66.628 20.6885 66.809C20.8265 66.9884 21.0296 67.0781 21.298 67.0781ZM23.5647 67.3334L22.6631 64.8494H23.0058L23.7395 66.8918L24.4686 64.8494H24.8159L23.9143 67.3334H23.5647ZM25.8005 67.4024C25.6134 67.4024 25.4562 67.3686 25.329 67.3012C25.2032 67.2337 25.1089 67.144 25.0461 67.0321C24.9832 66.9201 24.9518 66.7982 24.9518 66.6664C24.9518 66.5314 24.9786 66.4164 25.0323 66.3214C25.0875 66.2248 25.1618 66.1458 25.2554 66.0845C25.3504 66.0231 25.4601 65.9764 25.5843 65.9442C25.71 65.9135 25.8488 65.8867 26.0006 65.8637C26.1539 65.8391 26.3034 65.8184 26.4491 65.8016C26.5963 65.7832 26.7251 65.7655 26.8355 65.7487L26.7159 65.8223C26.7205 65.5769 26.6729 65.3952 26.5733 65.2772C26.4736 65.1591 26.3003 65.1001 26.0535 65.1001C25.8833 65.1001 25.7391 65.1384 25.6211 65.2151C25.5045 65.2917 25.4225 65.4129 25.375 65.5785L25.0461 65.4819C25.1028 65.2595 25.217 65.087 25.3888 64.9644C25.5605 64.8417 25.7836 64.7804 26.0581 64.7804C26.285 64.7804 26.4774 64.8233 26.6354 64.9092C26.7948 64.9935 26.9075 65.1162 26.9735 65.2772C27.0041 65.3492 27.0241 65.4297 27.0333 65.5187C27.0425 65.6076 27.0471 65.6981 27.0471 65.7901V67.3334H26.7458V66.7101L26.8332 66.7469C26.7488 66.96 26.6177 67.1225 26.4399 67.2345C26.262 67.3464 26.0489 67.4024 25.8005 67.4024ZM25.8396 67.1103C25.9975 67.1103 26.1355 67.0819 26.2536 67.0252C26.3716 66.9684 26.4667 66.891 26.5388 66.7929C26.6108 66.6932 26.6576 66.5813 26.6791 66.4571C26.6975 66.3773 26.7074 66.2899 26.709 66.1949C26.7105 66.0983 26.7113 66.0262 26.7113 65.9787L26.8401 66.0454C26.7251 66.0607 26.6001 66.076 26.4652 66.0914C26.3318 66.1067 26.1999 66.1243 26.0696 66.1443C25.9408 66.1642 25.8242 66.188 25.72 66.2156C25.6494 66.2355 25.5812 66.2639 25.5153 66.3007C25.4493 66.3359 25.3949 66.3835 25.352 66.4433C25.3106 66.5031 25.2899 66.5774 25.2899 66.6664C25.2899 66.7384 25.3075 66.8082 25.3428 66.8757C25.3796 66.9431 25.4378 66.9991 25.5176 67.0436C25.5988 67.088 25.7062 67.1103 25.8396 67.1103ZM28.9982 67.3334C28.8587 67.3625 28.7207 67.374 28.5842 67.3679C28.4493 67.3617 28.3282 67.3326 28.2208 67.2805C28.115 67.2283 28.0345 67.1471 27.9793 67.0367C27.9349 66.9447 27.9103 66.8519 27.9057 66.7584C27.9027 66.6633 27.9011 66.5552 27.9011 66.4341V64.1594H28.2369V66.4203C28.2369 66.5245 28.2377 66.6119 28.2392 66.6825C28.2423 66.7515 28.2584 66.8128 28.2875 66.8665C28.3427 66.9692 28.4301 67.0305 28.5497 67.0505C28.6709 67.0704 28.8204 67.0658 28.9982 67.0367V67.3334ZM27.3698 65.1392V64.8494H28.9982V65.1392H27.3698ZM29.5336 64.3779V63.9984H29.8717V64.3779H29.5336ZM29.5336 67.3334V64.8494H29.8717V67.3334H29.5336ZM31.2329 67.3334L30.3313 64.8494H30.674L31.4077 66.8918L32.1368 64.8494H32.4841L31.5825 67.3334H31.2329ZM33.8585 67.4024C33.6162 67.4024 33.4061 67.3487 33.2283 67.2414C33.0519 67.134 32.9147 66.983 32.8166 66.7883C32.7184 66.5935 32.6694 66.3651 32.6694 66.1029C32.6694 65.8315 32.7177 65.5969 32.8143 65.3991C32.9109 65.2013 33.0466 65.0487 33.2214 64.9414C33.3977 64.834 33.6055 64.7804 33.8447 64.7804C34.09 64.7804 34.2993 64.8371 34.4726 64.9506C34.6458 65.0625 34.7769 65.2235 34.8659 65.4336C34.9548 65.6436 34.9954 65.8943 34.9878 66.1857H34.6428V66.0661C34.6366 65.7441 34.5669 65.501 34.4335 65.337C34.3016 65.1729 34.1084 65.0909 33.8539 65.0909C33.5871 65.0909 33.3824 65.1775 33.2398 65.3508C33.0987 65.524 33.0282 65.7709 33.0282 66.0914C33.0282 66.4042 33.0987 66.6472 33.2398 66.8205C33.3824 66.9922 33.584 67.0781 33.8447 67.0781C34.0225 67.0781 34.1774 67.0374 34.3093 66.9562C34.4427 66.8734 34.5477 66.7545 34.6244 66.5997L34.9395 66.7216C34.8413 66.9378 34.6964 67.1057 34.5048 67.2253C34.3146 67.3433 34.0992 67.4024 33.8585 67.4024ZM32.9086 66.1857V65.9028H34.8061V66.1857H32.9086ZM36.4651 67.3334V64.0214H36.8032V67.0091H38.3764V67.3334H36.4651ZM39.8196 67.4024C39.5773 67.4024 39.3673 67.3487 39.1894 67.2414C39.0131 67.134 38.8758 66.983 38.7777 66.7883C38.6796 66.5935 38.6305 66.3651 38.6305 66.1029C38.6305 65.8315 38.6788 65.5969 38.7754 65.3991C38.872 65.2013 39.0077 65.0487 39.1825 64.9414C39.3588 64.834 39.5666 64.7804 39.8058 64.7804C40.0511 64.7804 40.2604 64.8371 40.4337 64.9506C40.607 65.0625 40.7381 65.2235 40.827 65.4336C40.9159 65.6436 40.9566 65.8943 40.9489 66.1857H40.6039V66.0661C40.5978 65.7441 40.528 65.501 40.3946 65.337C40.2627 65.1729 40.0695 65.0909 39.815 65.0909C39.5482 65.0909 39.3435 65.1775 39.2009 65.3508C39.0598 65.524 38.9893 65.7709 38.9893 66.0914C38.9893 66.4042 39.0598 66.6472 39.2009 66.8205C39.3435 66.9922 39.5451 67.0781 39.8058 67.0781C39.9837 67.0781 40.1385 67.0374 40.2704 66.9562C40.4038 66.8734 40.5088 66.7545 40.5855 66.5997L40.9006 66.7216C40.8025 66.9378 40.6576 67.1057 40.4659 67.2253C40.2758 67.3433 40.0603 67.4024 39.8196 67.4024ZM38.8697 66.1857V65.9028H40.7672V66.1857H38.8697ZM42.1251 67.4024C41.938 67.4024 41.7808 67.3686 41.6536 67.3012C41.5278 67.2337 41.4335 67.144 41.3707 67.0321C41.3078 66.9201 41.2764 66.7982 41.2764 66.6664C41.2764 66.5314 41.3032 66.4164 41.3569 66.3214C41.4121 66.2248 41.4864 66.1458 41.58 66.0845C41.675 66.0231 41.7847 65.9764 41.9089 65.9442C42.0346 65.9135 42.1734 65.8867 42.3252 65.8637C42.4785 65.8391 42.628 65.8184 42.7737 65.8016C42.9209 65.7832 43.0497 65.7655 43.1601 65.7487L43.0405 65.8223C43.0451 65.5769 42.9975 65.3952 42.8979 65.2772C42.7982 65.1591 42.6249 65.1001 42.3781 65.1001C42.2079 65.1001 42.0637 65.1384 41.9457 65.2151C41.8291 65.2917 41.7471 65.4129 41.6996 65.5785L41.3707 65.4819C41.4274 65.2595 41.5416 65.087 41.7134 64.9644C41.8851 64.8417 42.1082 64.7804 42.3827 64.7804C42.6096 64.7804 42.802 64.8233 42.96 64.9092C43.1194 64.9935 43.2321 65.1162 43.2981 65.2772C43.3287 65.3492 43.3487 65.4297 43.3579 65.5187C43.3671 65.6076 43.3717 65.6981 43.3717 65.7901V67.3334H43.0704V66.7101L43.1578 66.7469C43.0734 66.96 42.9423 67.1225 42.7645 67.2345C42.5866 67.3464 42.3735 67.4024 42.1251 67.4024ZM42.1642 67.1103C42.3221 67.1103 42.4601 67.0819 42.5782 67.0252C42.6962 66.9684 42.7913 66.891 42.8634 66.7929C42.9354 66.6932 42.9822 66.5813 43.0037 66.4571C43.0221 66.3773 43.032 66.2899 43.0336 66.1949C43.0351 66.0983 43.0359 66.0262 43.0359 65.9787L43.1647 66.0454C43.0497 66.0607 42.9247 66.076 42.7898 66.0914C42.6564 66.1067 42.5245 66.1243 42.3942 66.1443C42.2654 66.1642 42.1488 66.188 42.0446 66.2156C41.974 66.2355 41.9058 66.2639 41.8399 66.3007C41.7739 66.3359 41.7195 66.3835 41.6766 66.4433C41.6352 66.5031 41.6145 66.5774 41.6145 66.6664C41.6145 66.7384 41.6321 66.8082 41.6674 66.8757C41.7042 66.9431 41.7624 66.9991 41.8422 67.0436C41.9234 67.088 42.0308 67.1103 42.1642 67.1103ZM43.9704 67.3334V64.8494H44.274V65.4474L44.2142 65.3692C44.2418 65.2956 44.2779 65.2281 44.3223 65.1668C44.3668 65.1039 44.4151 65.0525 44.4672 65.0127C44.5316 64.9559 44.6068 64.913 44.6926 64.8839C44.7785 64.8532 44.8651 64.8356 44.9525 64.831C45.0399 64.8248 45.1197 64.831 45.1917 64.8494V65.1668C45.1013 65.1438 45.0024 65.1384 44.895 65.1507C44.7877 65.1629 44.6888 65.2059 44.5983 65.2795C44.5155 65.3439 44.4534 65.4213 44.412 65.5118C44.3706 65.6007 44.343 65.6958 44.3292 65.797C44.3154 65.8966 44.3085 65.9955 44.3085 66.0937V67.3334H43.9704ZM47.4221 67.3334V66.0661C47.4221 65.9281 47.409 65.8016 47.383 65.6866C47.3569 65.57 47.3147 65.4688 47.2565 65.383C47.1997 65.2956 47.1254 65.2281 47.0334 65.1806C46.9429 65.133 46.8325 65.1093 46.7022 65.1093C46.5826 65.1093 46.4768 65.13 46.3848 65.1714C46.2943 65.2128 46.2176 65.2726 46.1548 65.3508C46.0934 65.4274 46.0467 65.521 46.0145 65.6314C45.9823 65.7418 45.9662 65.8675 45.9662 66.0086L45.727 65.9557C45.727 65.7011 45.7714 65.4872 45.8604 65.314C45.9493 65.1407 46.072 65.0096 46.2284 64.9207C46.3848 64.8317 46.5642 64.7873 46.7666 64.7873C46.9153 64.7873 47.0449 64.8103 47.1553 64.8563C47.2672 64.9023 47.3615 64.9644 47.4382 65.0426C47.5164 65.1208 47.5792 65.2105 47.6268 65.3117C47.6743 65.4113 47.7088 65.5179 47.7303 65.6314C47.7517 65.7433 47.7625 65.8552 47.7625 65.9672V67.3334H47.4221ZM45.6258 67.3334V64.8494H45.9317V65.4612H45.9662V67.3334H45.6258ZM48.4053 64.3779V63.9984H48.7434V64.3779H48.4053ZM48.4053 67.3334V64.8494H48.7434V67.3334H48.4053ZM51.2269 67.3334V66.0661C51.2269 65.9281 51.2139 65.8016 51.1878 65.6866C51.1618 65.57 51.1196 65.4688 51.0613 65.383C51.0046 65.2956 50.9302 65.2281 50.8382 65.1806C50.7478 65.133 50.6374 65.1093 50.507 65.1093C50.3874 65.1093 50.2816 65.13 50.1896 65.1714C50.0992 65.2128 50.0225 65.2726 49.9596 65.3508C49.8983 65.4274 49.8515 65.521 49.8193 65.6314C49.7871 65.7418 49.771 65.8675 49.771 66.0086L49.5318 65.9557C49.5318 65.7011 49.5763 65.4872 49.6652 65.314C49.7542 65.1407 49.8768 65.0096 50.0332 64.9207C50.1896 64.8317 50.369 64.7873 50.5714 64.7873C50.7202 64.7873 50.8497 64.8103 50.9601 64.8563C51.0721 64.9023 51.1664 64.9644 51.243 65.0426C51.3212 65.1208 51.3841 65.2105 51.4316 65.3117C51.4792 65.4113 51.5137 65.5179 51.5351 65.6314C51.5566 65.7433 51.5673 65.8552 51.5673 65.9672V67.3334H51.2269ZM49.4306 67.3334V64.8494H49.7365V65.4612H49.771V67.3334H49.4306ZM53.1509 68.5064C53.0236 68.5064 52.8979 68.4872 52.7737 68.4489C52.651 68.4121 52.5376 68.353 52.4333 68.2718C52.329 68.192 52.2416 68.0878 52.1711 67.959L52.477 67.7888C52.546 67.9268 52.6426 68.0257 52.7668 68.0855C52.8925 68.1468 53.0206 68.1775 53.1509 68.1775C53.3303 68.1775 53.4752 68.1437 53.5856 68.0763C53.6975 68.0103 53.7788 67.9122 53.8294 67.7819C53.88 67.6515 53.9045 67.489 53.903 67.2943V66.6319H53.9421V64.8494H54.2434V67.2989C54.2434 67.3694 54.2411 67.4369 54.2365 67.5013C54.2334 67.5672 54.2265 67.6316 54.2158 67.6945C54.1867 67.88 54.1261 68.0326 54.0341 68.1522C53.9436 68.2718 53.824 68.3607 53.6753 68.419C53.5281 68.4772 53.3533 68.5064 53.1509 68.5064ZM53.1279 67.4024C52.8964 67.4024 52.6986 67.3449 52.5345 67.2299C52.3704 67.1133 52.2447 66.9562 52.1573 66.7584C52.0699 66.5606 52.0262 66.3375 52.0262 66.0891C52.0262 65.8422 52.0691 65.6199 52.155 65.4221C52.2424 65.2243 52.3674 65.0679 52.5299 64.9529C52.6924 64.8379 52.8872 64.7804 53.1141 64.7804C53.3472 64.7804 53.5434 64.8371 53.7029 64.9506C53.8624 65.064 53.9827 65.2197 54.064 65.4175C54.1468 65.6137 54.1882 65.8376 54.1882 66.0891C54.1882 66.3359 54.1476 66.559 54.0663 66.7584C53.985 66.9562 53.8654 67.1133 53.7075 67.2299C53.5496 67.3449 53.3564 67.4024 53.1279 67.4024ZM53.1624 67.0873C53.3387 67.0873 53.4844 67.0443 53.5994 66.9585C53.7144 66.8726 53.8003 66.7545 53.857 66.6043C53.9137 66.4525 53.9421 66.2807 53.9421 66.0891C53.9421 65.8943 53.9137 65.7226 53.857 65.5739C53.8003 65.4236 53.7144 65.3063 53.5994 65.222C53.4859 65.1376 53.3426 65.0955 53.1693 65.0955C52.9914 65.0955 52.8442 65.1392 52.7277 65.2266C52.6112 65.314 52.5245 65.4328 52.4678 65.5831C52.4126 65.7333 52.385 65.902 52.385 66.0891C52.385 66.2777 52.4134 66.4479 52.4701 66.5997C52.5284 66.7499 52.615 66.8688 52.73 66.9562C52.845 67.0436 52.9891 67.0873 53.1624 67.0873ZM55.8074 67.3334V64.0214H57.7095V64.3595H56.1455V65.5095H57.4335V65.8453H56.1455V67.3334H55.8074ZM59.0952 67.4024C58.8484 67.4024 58.6375 67.3464 58.4627 67.2345C58.2879 67.1225 58.1538 66.9677 58.0602 66.7699C57.9667 66.5721 57.9199 66.3451 57.9199 66.0891C57.9199 65.8284 57.9675 65.5999 58.0625 65.4037C58.1576 65.2074 58.2925 65.0548 58.4673 64.946C58.6437 64.8356 58.853 64.7804 59.0952 64.7804C59.3436 64.7804 59.5552 64.8363 59.73 64.9483C59.9064 65.0587 60.0405 65.2128 60.1325 65.4106C60.2261 65.6068 60.2728 65.833 60.2728 66.0891C60.2728 66.3497 60.2261 66.579 60.1325 66.7768C60.039 66.973 59.9041 67.1264 59.7277 67.2368C59.5514 67.3472 59.3406 67.4024 59.0952 67.4024ZM59.0952 67.0781C59.3712 67.0781 59.5767 66.9868 59.7116 66.8044C59.8466 66.6204 59.914 66.3819 59.914 66.0891C59.914 65.7885 59.8458 65.5493 59.7093 65.3715C59.5744 65.1936 59.3697 65.1047 59.0952 65.1047C58.9097 65.1047 58.7564 65.1468 58.6352 65.2312C58.5156 65.314 58.4259 65.4297 58.3661 65.5785C58.3079 65.7257 58.2787 65.8959 58.2787 66.0891C58.2787 66.3881 58.3477 66.628 58.4857 66.809C58.6237 66.9884 58.8269 67.0781 59.0952 67.0781ZM60.7802 67.3334V64.8494H61.0838V65.4474L61.024 65.3692C61.0516 65.2956 61.0876 65.2281 61.1321 65.1668C61.1766 65.1039 61.2249 65.0525 61.277 65.0127C61.3414 64.9559 61.4165 64.913 61.5024 64.8839C61.5883 64.8532 61.6749 64.8356 61.7623 64.831C61.8497 64.8248 61.9294 64.831 62.0015 64.8494V65.1668C61.911 65.1438 61.8121 65.1384 61.7048 65.1507C61.5975 65.1629 61.4986 65.2059 61.4081 65.2795C61.3253 65.3439 61.2632 65.4213 61.2218 65.5118C61.1804 65.6007 61.1528 65.6958 61.139 65.797C61.1252 65.8966 61.1183 65.9955 61.1183 66.0937V67.3334H60.7802ZM64.5087 67.4024C64.2772 67.4024 64.0686 67.364 63.8831 67.2874C63.6991 67.2092 63.5465 67.0988 63.4254 66.9562C63.3058 66.8136 63.2276 66.6441 63.1908 66.4479L63.5358 66.3904C63.591 66.605 63.7075 66.7737 63.8854 66.8964C64.0633 67.0175 64.2756 67.0781 64.5225 67.0781C64.685 67.0781 64.8307 67.0528 64.9595 67.0022C65.0883 66.95 65.1895 66.8764 65.2631 66.7814C65.3367 66.6863 65.3735 66.5736 65.3735 66.4433C65.3735 66.3574 65.3582 66.2846 65.3275 66.2248C65.2968 66.1634 65.2562 66.1128 65.2056 66.073C65.155 66.0331 65.0998 66.0001 65.04 65.9741C64.9802 65.9465 64.9219 65.9242 64.8652 65.9074L64.0257 65.6567C63.9245 65.6275 63.831 65.5907 63.7451 65.5463C63.6592 65.5003 63.5841 65.4458 63.5197 65.383C63.4568 65.3186 63.4078 65.2434 63.3725 65.1576C63.3372 65.0717 63.3196 64.9736 63.3196 64.8632C63.3196 64.6761 63.3687 64.5143 63.4668 64.3779C63.5649 64.2414 63.6991 64.1364 63.8693 64.0628C64.0395 63.9892 64.2335 63.9531 64.4512 63.9547C64.672 63.9547 64.869 63.9938 65.0423 64.072C65.2171 64.1502 65.3612 64.2621 65.4747 64.4078C65.5882 64.5519 65.6633 64.7229 65.7001 64.9207L65.3459 64.9851C65.3229 64.8409 65.27 64.716 65.1872 64.6102C65.1044 64.5044 64.9986 64.4231 64.8698 64.3664C64.7425 64.3081 64.6022 64.2782 64.4489 64.2767C64.3002 64.2767 64.1675 64.302 64.051 64.3526C63.936 64.4016 63.8448 64.4691 63.7773 64.555C63.7098 64.6408 63.6761 64.739 63.6761 64.8494C63.6761 64.9613 63.7068 65.051 63.7681 65.1185C63.831 65.1859 63.9076 65.2388 63.9981 65.2772C64.0901 65.3155 64.179 65.3469 64.2649 65.3715L64.9135 65.5624C64.981 65.5808 65.0599 65.6076 65.1504 65.6429C65.2424 65.6766 65.3313 65.7257 65.4172 65.7901C65.5046 65.8529 65.5767 65.9357 65.6334 66.0385C65.6901 66.1412 65.7185 66.2715 65.7185 66.4295C65.7185 66.5828 65.6878 66.72 65.6265 66.8412C65.5667 66.9623 65.4816 67.0643 65.3712 67.1471C65.2623 67.2299 65.1343 67.2927 64.9871 67.3357C64.8414 67.3801 64.682 67.4024 64.5087 67.4024ZM69.1557 67.3334L69.158 65.7027C69.158 65.511 69.1043 65.3607 68.997 65.2519C68.8912 65.1415 68.7563 65.0863 68.5922 65.0863C68.4987 65.0863 68.4074 65.1077 68.3185 65.1507C68.2296 65.1936 68.156 65.2626 68.0977 65.3577C68.041 65.4527 68.0126 65.5769 68.0126 65.7303L67.8125 65.6728C67.8079 65.4949 67.8424 65.3393 67.916 65.2059C67.9911 65.0725 68.0939 64.969 68.2242 64.8954C68.3561 64.8202 68.5048 64.7827 68.6704 64.7827C68.9203 64.7827 69.1204 64.8601 69.2707 65.015C69.421 65.1683 69.4961 65.3761 69.4961 65.6383L69.4938 67.3334H69.1557ZM66.191 67.3334V64.8494H66.4946V65.4612H66.5314V67.3334H66.191ZM67.6768 67.3334L67.6791 65.7257C67.6791 65.5279 67.6262 65.3722 67.5204 65.2588C67.4161 65.1438 67.2781 65.0863 67.1064 65.0863C66.9347 65.0863 66.7959 65.1453 66.6901 65.2634C66.5843 65.3799 66.5314 65.5355 66.5314 65.7303L66.329 65.6199C66.329 65.4604 66.3666 65.3178 66.4417 65.1921C66.5168 65.0648 66.6196 64.9651 66.7499 64.8931C66.8802 64.8195 67.0282 64.7827 67.1938 64.7827C67.3517 64.7827 67.492 64.8164 67.6147 64.8839C67.7389 64.9513 67.8363 65.0495 67.9068 65.1783C67.9773 65.3071 68.0126 65.4635 68.0126 65.6475L68.0103 67.3334H67.6768ZM70.8032 67.4024C70.6161 67.4024 70.459 67.3686 70.3317 67.3012C70.206 67.2337 70.1117 67.144 70.0488 67.0321C69.9859 66.9201 69.9545 66.7982 69.9545 66.6664C69.9545 66.5314 69.9813 66.4164 70.035 66.3214C70.0902 66.2248 70.1646 66.1458 70.2581 66.0845C70.3532 66.0231 70.4628 65.9764 70.587 65.9442C70.7127 65.9135 70.8515 65.8867 71.0033 65.8637C71.1566 65.8391 71.3061 65.8184 71.4518 65.8016C71.599 65.7832 71.7278 65.7655 71.8382 65.7487L71.7186 65.8223C71.7232 65.5769 71.6757 65.3952 71.576 65.2772C71.4763 65.1591 71.3031 65.1001 71.0562 65.1001C70.886 65.1001 70.7419 65.1384 70.6238 65.2151C70.5073 65.2917 70.4252 65.4129 70.3777 65.5785L70.0488 65.4819C70.1055 65.2595 70.2198 65.087 70.3915 64.9644C70.5632 64.8417 70.7863 64.7804 71.0608 64.7804C71.2877 64.7804 71.4802 64.8233 71.6381 64.9092C71.7976 64.9935 71.9103 65.1162 71.9762 65.2772C72.0069 65.3492 72.0268 65.4297 72.036 65.5187C72.0452 65.6076 72.0498 65.6981 72.0498 65.7901V67.3334H71.7485V66.7101L71.8359 66.7469C71.7516 66.96 71.6205 67.1225 71.4426 67.2345C71.2647 67.3464 71.0516 67.4024 70.8032 67.4024ZM70.8423 67.1103C71.0002 67.1103 71.1382 67.0819 71.2563 67.0252C71.3744 66.9684 71.4694 66.891 71.5415 66.7929C71.6136 66.6932 71.6603 66.5813 71.6818 66.4571C71.7002 66.3773 71.7102 66.2899 71.7117 66.1949C71.7132 66.0983 71.714 66.0262 71.714 65.9787L71.8428 66.0454C71.7278 66.0607 71.6028 66.076 71.4679 66.0914C71.3345 66.1067 71.2026 66.1243 71.0723 66.1443C70.9435 66.1642 70.827 66.188 70.7227 66.2156C70.6522 66.2355 70.5839 66.2639 70.518 66.3007C70.4521 66.3359 70.3976 66.3835 70.3547 66.4433C70.3133 66.5031 70.2926 66.5774 70.2926 66.6664C70.2926 66.7384 70.3102 66.8082 70.3455 66.8757C70.3823 66.9431 70.4406 66.9991 70.5203 67.0436C70.6016 67.088 70.7089 67.1103 70.8423 67.1103ZM72.6486 67.3334V64.8494H72.9522V65.4474L72.8924 65.3692C72.92 65.2956 72.956 65.2281 73.0005 65.1668C73.0449 65.1039 73.0932 65.0525 73.1454 65.0127C73.2098 64.9559 73.2849 64.913 73.3708 64.8839C73.4566 64.8532 73.5433 64.8356 73.6307 64.831C73.7181 64.8248 73.7978 64.831 73.8699 64.8494V65.1668C73.7794 65.1438 73.6805 65.1384 73.5732 65.1507C73.4658 65.1629 73.3669 65.2059 73.2765 65.2795C73.1937 65.3439 73.1316 65.4213 73.0902 65.5118C73.0488 65.6007 73.0212 65.6958 73.0074 65.797C72.9936 65.8966 72.9867 65.9955 72.9867 66.0937V67.3334H72.6486ZM75.6586 67.3334C75.519 67.3625 75.381 67.374 75.2446 67.3679C75.1096 67.3617 74.9885 67.3326 74.8812 67.2805C74.7754 67.2283 74.6949 67.1471 74.6397 67.0367C74.5952 66.9447 74.5707 66.8519 74.5661 66.7584C74.563 66.6633 74.5615 66.5552 74.5615 66.4341V64.1594H74.8973V66.4203C74.8973 66.5245 74.898 66.6119 74.8996 66.6825C74.9026 66.7515 74.9187 66.8128 74.9479 66.8665C75.0031 66.9692 75.0905 67.0305 75.2101 67.0505C75.3312 67.0704 75.4807 67.0658 75.6586 67.0367V67.3334ZM74.0302 65.1392V64.8494H75.6586V65.1392H74.0302ZM77.1092 67.4024C76.867 67.4024 76.6569 67.3487 76.479 67.2414C76.3027 67.134 76.1655 66.983 76.0673 66.7883C75.9692 66.5935 75.9201 66.3651 75.9201 66.1029C75.9201 65.8315 75.9684 65.5969 76.065 65.3991C76.1616 65.2013 76.2973 65.0487 76.4721 64.9414C76.6485 64.834 76.8562 64.7804 77.0954 64.7804C77.3408 64.7804 77.5501 64.8371 77.7233 64.9506C77.8966 65.0625 78.0277 65.2235 78.1166 65.4336C78.2056 65.6436 78.2462 65.8943 78.2385 66.1857H77.8935V66.0661C77.8874 65.7441 77.8176 65.501 77.6842 65.337C77.5524 65.1729 77.3592 65.0909 77.1046 65.0909C76.8378 65.0909 76.6331 65.1775 76.4905 65.3508C76.3495 65.524 76.2789 65.7709 76.2789 66.0914C76.2789 66.4042 76.3495 66.6472 76.4905 66.8205C76.6331 66.9922 76.8348 67.0781 77.0954 67.0781C77.2733 67.0781 77.4282 67.0374 77.56 66.9562C77.6934 66.8734 77.7985 66.7545 77.8751 66.5997L78.1902 66.7216C78.0921 66.9378 77.9472 67.1057 77.7555 67.2253C77.5654 67.3433 77.35 67.4024 77.1092 67.4024ZM76.1593 66.1857V65.9028H78.0568V66.1857H76.1593ZM78.7489 67.3334V64.8494H79.0525V65.4474L78.9927 65.3692C79.0203 65.2956 79.0564 65.2281 79.1008 65.1668C79.1453 65.1039 79.1936 65.0525 79.2457 65.0127C79.3101 64.9559 79.3853 64.913 79.4711 64.8839C79.557 64.8532 79.6436 64.8356 79.731 64.831C79.8184 64.8248 79.8982 64.831 79.9702 64.8494V65.1668C79.8798 65.1438 79.7809 65.1384 79.6735 65.1507C79.5662 65.1629 79.4673 65.2059 79.3768 65.2795C79.294 65.3439 79.2319 65.4213 79.1905 65.5118C79.1491 65.6007 79.1215 65.6958 79.1077 65.797C79.0939 65.8966 79.087 65.9955 79.087 66.0937V67.3334H78.7489ZM82.2084 67.3334V64.3457H81.0515V64.0214H83.7034V64.3457H82.5465V67.3334H82.2084ZM84.7411 67.4024C84.4943 67.4024 84.2834 67.3464 84.1086 67.2345C83.9338 67.1225 83.7997 66.9677 83.7061 66.7699C83.6126 66.5721 83.5658 66.3451 83.5658 66.0891C83.5658 65.8284 83.6134 65.5999 83.7084 65.4037C83.8035 65.2074 83.9384 65.0548 84.1132 64.946C84.2896 64.8356 84.4989 64.7804 84.7411 64.7804C84.9895 64.7804 85.2011 64.8363 85.3759 64.9483C85.5523 65.0587 85.6864 65.2128 85.7784 65.4106C85.872 65.6068 85.9187 65.833 85.9187 66.0891C85.9187 66.3497 85.872 66.579 85.7784 66.7768C85.6849 66.973 85.55 67.1264 85.3736 67.2368C85.1973 67.3472 84.9865 67.4024 84.7411 67.4024ZM84.7411 67.0781C85.0171 67.0781 85.2226 66.9868 85.3575 66.8044C85.4925 66.6204 85.5599 66.3819 85.5599 66.0891C85.5599 65.7885 85.4917 65.5493 85.3552 65.3715C85.2203 65.1936 85.0156 65.1047 84.7411 65.1047C84.5556 65.1047 84.4023 65.1468 84.2811 65.2312C84.1615 65.314 84.0718 65.4297 84.012 65.5785C83.9538 65.7257 83.9246 65.8959 83.9246 66.0891C83.9246 66.3881 83.9936 66.628 84.1316 66.809C84.2696 66.9884 84.4728 67.0781 84.7411 67.0781ZM89.3885 67.3334L89.3908 65.7027C89.3908 65.511 89.3371 65.3607 89.2298 65.2519C89.124 65.1415 88.9891 65.0863 88.825 65.0863C88.7315 65.0863 88.6402 65.1077 88.5513 65.1507C88.4624 65.1936 88.3888 65.2626 88.3305 65.3577C88.2738 65.4527 88.2454 65.5769 88.2454 65.7303L88.0453 65.6728C88.0407 65.4949 88.0752 65.3393 88.1488 65.2059C88.2239 65.0725 88.3267 64.969 88.457 64.8954C88.5889 64.8202 88.7376 64.7827 88.9032 64.7827C89.1531 64.7827 89.3532 64.8601 89.5035 65.015C89.6538 65.1683 89.7289 65.3761 89.7289 65.6383L89.7266 67.3334H89.3885ZM86.4238 67.3334V64.8494H86.7274V65.4612H86.7642V67.3334H86.4238ZM87.9096 67.3334L87.9119 65.7257C87.9119 65.5279 87.859 65.3722 87.7532 65.2588C87.6489 65.1438 87.5109 65.0863 87.3392 65.0863C87.1675 65.0863 87.0287 65.1453 86.9229 65.2634C86.8171 65.3799 86.7642 65.5355 86.7642 65.7303L86.5618 65.6199C86.5618 65.4604 86.5994 65.3178 86.6745 65.1921C86.7496 65.0648 86.8524 64.9651 86.9827 64.8931C87.113 64.8195 87.261 64.7827 87.4266 64.7827C87.5845 64.7827 87.7248 64.8164 87.8475 64.8839C87.9717 64.9513 88.0691 65.0495 88.1396 65.1783C88.2101 65.3071 88.2454 65.4635 88.2454 65.6475L88.2431 67.3334H87.9096ZM91.3491 67.4024C91.1023 67.4024 90.8914 67.3464 90.7166 67.2345C90.5418 67.1225 90.4077 66.9677 90.3141 66.7699C90.2206 66.5721 90.1738 66.3451 90.1738 66.0891C90.1738 65.8284 90.2214 65.5999 90.3164 65.4037C90.4115 65.2074 90.5464 65.0548 90.7212 64.946C90.8976 64.8356 91.1069 64.7804 91.3491 64.7804C91.5975 64.7804 91.8091 64.8363 91.9839 64.9483C92.1603 65.0587 92.2944 65.2128 92.3864 65.4106C92.48 65.6068 92.5267 65.833 92.5267 66.0891C92.5267 66.3497 92.48 66.579 92.3864 66.7768C92.2929 66.973 92.158 67.1264 91.9816 67.2368C91.8053 67.3472 91.5945 67.4024 91.3491 67.4024ZM91.3491 67.0781C91.6251 67.0781 91.8306 66.9868 91.9655 66.8044C92.1005 66.6204 92.1679 66.3819 92.1679 66.0891C92.1679 65.7885 92.0997 65.5493 91.9632 65.3715C91.8283 65.1936 91.6236 65.1047 91.3491 65.1047C91.1636 65.1047 91.0103 65.1468 90.8891 65.2312C90.7695 65.314 90.6798 65.4297 90.62 65.5785C90.5618 65.7257 90.5326 65.8959 90.5326 66.0891C90.5326 66.3881 90.6016 66.628 90.7396 66.809C90.8776 66.9884 91.0808 67.0781 91.3491 67.0781ZM93.0341 67.3334V64.8494H93.3377V65.4474L93.2779 65.3692C93.3055 65.2956 93.3415 65.2281 93.386 65.1668C93.4305 65.1039 93.4788 65.0525 93.5309 65.0127C93.5953 64.9559 93.6704 64.913 93.7563 64.8839C93.8422 64.8532 93.9288 64.8356 94.0162 64.831C94.1036 64.8248 94.1833 64.831 94.2554 64.8494V65.1668C94.1649 65.1438 94.066 65.1384 93.9587 65.1507C93.8514 65.1629 93.7525 65.2059 93.662 65.2795C93.5792 65.3439 93.5171 65.4213 93.4757 65.5118C93.4343 65.6007 93.4067 65.6958 93.3929 65.797C93.3791 65.8966 93.3722 65.9955 93.3722 66.0937V67.3334H93.0341ZM94.6917 67.3334V64.8494H94.9953V65.4474L94.9355 65.3692C94.9631 65.2956 94.9992 65.2281 95.0436 65.1668C95.0881 65.1039 95.1364 65.0525 95.1885 65.0127C95.2529 64.9559 95.3281 64.913 95.4139 64.8839C95.4998 64.8532 95.5864 64.8356 95.6738 64.831C95.7612 64.8248 95.841 64.831 95.913 64.8494V65.1668C95.8226 65.1438 95.7237 65.1384 95.6163 65.1507C95.509 65.1629 95.4101 65.2059 95.3196 65.2795C95.2368 65.3439 95.1747 65.4213 95.1333 65.5118C95.0919 65.6007 95.0643 65.6958 95.0505 65.797C95.0367 65.8966 95.0298 65.9955 95.0298 66.0937V67.3334H94.6917ZM97.3417 67.4024C97.0949 67.4024 96.884 67.3464 96.7092 67.2345C96.5344 67.1225 96.4003 66.9677 96.3067 66.7699C96.2132 66.5721 96.1664 66.3451 96.1664 66.0891C96.1664 65.8284 96.214 65.5999 96.309 65.4037C96.4041 65.2074 96.539 65.0548 96.7138 64.946C96.8902 64.8356 97.0995 64.7804 97.3417 64.7804C97.5901 64.7804 97.8017 64.8363 97.9765 64.9483C98.1529 65.0587 98.287 65.2128 98.379 65.4106C98.4726 65.6068 98.5193 65.833 98.5193 66.0891C98.5193 66.3497 98.4726 66.579 98.379 66.7768C98.2855 66.973 98.1506 67.1264 97.9742 67.2368C97.7979 67.3472 97.5871 67.4024 97.3417 67.4024ZM97.3417 67.0781C97.6177 67.0781 97.8232 66.9868 97.9581 66.8044C98.0931 66.6204 98.1605 66.3819 98.1605 66.0891C98.1605 65.7885 98.0923 65.5493 97.9558 65.3715C97.8209 65.1936 97.6162 65.1047 97.3417 65.1047C97.1562 65.1047 97.0029 65.1468 96.8817 65.2312C96.7621 65.314 96.6724 65.4297 96.6126 65.5785C96.5544 65.7257 96.5252 65.8959 96.5252 66.0891C96.5252 66.3881 96.5942 66.628 96.7322 66.809C96.8702 66.9884 97.0734 67.0781 97.3417 67.0781ZM99.4658 67.3334L98.7068 64.8471L99.0449 64.8494L99.6337 66.7791L100.225 64.8494H100.533L101.124 66.7791L101.718 64.8494H102.053L101.294 67.3334H101L100.379 65.3554L99.7602 67.3334H99.4658Z" fill="#FFDFCE"/>
<path d="M103.501 65.6459H110.688M11.0215 65.6459H3.83398" stroke="#F9F8F8" stroke-width="0.425926"/>
</svg>
