<svg width="24" height="25" viewBox="0 0 24 25" fill="none" xmlns="http://www.w3.org/2000/svg">
<path d="M15.2405 22.9166H15.1105C10.6705 22.9166 8.5305 21.1394 8.1605 17.1585C8.1205 16.7422 8.4205 16.3664 8.8405 16.3258C9.2405 16.2852 9.6205 16.6 9.6605 17.0163C9.9505 20.2051 11.4305 21.3933 15.1205 21.3933H15.2505C19.3205 21.3933 20.7605 19.9309 20.7605 15.7977V9.17647C20.7605 5.04327 19.3205 3.58091 15.2505 3.58091H15.1205C11.4105 3.58091 9.9305 4.78939 9.6605 8.03908C9.6105 8.45544 9.2605 8.77026 8.8405 8.72964C8.4205 8.69917 8.1205 8.32343 8.1505 7.90706C8.4905 3.86526 10.6405 2.05762 15.1105 2.05762H15.2405C20.1505 2.05762 22.2505 4.19023 22.2505 9.17647V15.7977C22.2505 20.784 20.1505 22.9166 15.2405 22.9166Z" fill="url(#paint0_linear_498_633)"/>
<path d="M14.9991 13.2488H3.61914C3.20914 13.2488 2.86914 12.9036 2.86914 12.4872C2.86914 12.0709 3.20914 11.7256 3.61914 11.7256H14.9991C15.4091 11.7256 15.7491 12.0709 15.7491 12.4872C15.7491 12.9036 15.4091 13.2488 14.9991 13.2488Z" fill="url(#paint1_linear_498_633)"/>
<path d="M5.84945 16.6509C5.65945 16.6509 5.46945 16.5799 5.31945 16.4275L1.96945 13.0255C1.67945 12.731 1.67945 12.2436 1.96945 11.9491L5.31945 8.54705C5.60945 8.25255 6.08945 8.25255 6.37945 8.54705C6.66945 8.84155 6.66945 9.329 6.37945 9.62351L3.55945 12.4873L6.37945 15.3511C6.66945 15.6456 6.66945 16.133 6.37945 16.4275C6.23945 16.5799 6.03945 16.6509 5.84945 16.6509Z" fill="url(#paint2_linear_498_633)"/>
<defs>
<linearGradient id="paint0_linear_498_633" x1="8.14844" y1="22.9166" x2="22.2514" y2="22.916" gradientUnits="userSpaceOnUse">
<stop offset="0.0184" stop-color="#AE67FA"/>
<stop offset="1" stop-color="#F49867"/>
</linearGradient>
<linearGradient id="paint1_linear_498_633" x1="2.86914" y1="13.2488" x2="15.7499" y2="13.2423" gradientUnits="userSpaceOnUse">
<stop offset="0.0184" stop-color="#AE67FA"/>
<stop offset="1" stop-color="#F49867"/>
</linearGradient>
<linearGradient id="paint2_linear_498_633" x1="1.75195" y1="16.6509" x2="6.59724" y2="16.6508" gradientUnits="userSpaceOnUse">
<stop offset="0.0184" stop-color="#AE67FA"/>
<stop offset="1" stop-color="#F49867"/>
</linearGradient>
</defs>
</svg>
