<svg width="35" height="30" viewBox="0 0 35 30" fill="none" xmlns="http://www.w3.org/2000/svg">
<path d="M32.723 28.6881C33.3162 29.033 33.0715 29.9404 32.3854 29.9404L3.11472 29.9404C2.42864 29.9404 2.18402 29.033 2.77715 28.6881L12.741 22.8952C14.2622 22.0108 15.9905 21.5449 17.7501 21.5449C19.5097 21.5449 21.238 22.0108 22.7592 22.8952L32.723 28.6881Z" fill="#F9F8F8"/>
<path d="M17.7494 7.94554V19.1942L16.5052 18.3954C15.835 18.0522 15.1103 17.8343 14.3632 17.7584L11.2848 17.4415C10.7622 17.3854 10.3613 16.9332 10.3613 16.3886V7.15338C10.3613 6.56916 10.8199 6.09717 11.3874 6.09717H12.3591C14.3985 6.09717 16.0787 6.7441 17.7494 7.94554ZM17.7494 19.1942V7.94554C19.42 6.7441 21.1003 6.09717 23.1397 6.09717H24.1113C24.6789 6.09717 25.1375 6.56916 25.1375 7.15338V16.3886C25.1375 16.9299 24.7366 17.3854 24.2139 17.4382L21.1356 17.7551C20.3916 17.831 19.6637 18.0489 18.9936 18.3921L17.7494 19.1942Z" fill="#F9F8F8"/>
<mask id="path-3-outside-1_607_138" maskUnits="userSpaceOnUse" x="4.32422" y="0.0595703" width="27" height="22" fill="black">
<rect fill="white" x="4.32422" y="0.0595703" width="27" height="22"/>
<path fill-rule="evenodd" clip-rule="evenodd" d="M8.29147 2.40285H27.2077C28.0271 2.40285 28.6913 3.00426 28.6913 3.74614V18.1864C28.6913 18.6257 28.4585 19.0157 28.0985 19.2608C27.8248 19.4471 27.5839 19.72 27.5839 20.051C27.5839 20.4776 27.9613 20.8151 28.3598 20.663C29.4263 20.2558 30.175 19.3002 30.175 18.1864V3.74614C30.175 2.26239 28.8465 1.05957 27.2077 1.05957H8.29147C6.6527 1.05957 5.32422 2.26239 5.32422 3.74614V18.1864C5.32422 19.305 6.07925 20.2639 7.15304 20.6682C7.55066 20.8179 7.92581 20.4812 7.92581 20.0563C7.92581 19.7241 7.68289 19.4507 7.40727 19.2652C7.04352 19.0204 6.80785 18.6283 6.80785 18.1864V3.74614C6.80785 3.00426 7.47209 2.40285 8.29147 2.40285Z"/>
</mask>
<path fill-rule="evenodd" clip-rule="evenodd" d="M8.29147 2.40285H27.2077C28.0271 2.40285 28.6913 3.00426 28.6913 3.74614V18.1864C28.6913 18.6257 28.4585 19.0157 28.0985 19.2608C27.8248 19.4471 27.5839 19.72 27.5839 20.051C27.5839 20.4776 27.9613 20.8151 28.3598 20.663C29.4263 20.2558 30.175 19.3002 30.175 18.1864V3.74614C30.175 2.26239 28.8465 1.05957 27.2077 1.05957H8.29147C6.6527 1.05957 5.32422 2.26239 5.32422 3.74614V18.1864C5.32422 19.305 6.07925 20.2639 7.15304 20.6682C7.55066 20.8179 7.92581 20.4812 7.92581 20.0563C7.92581 19.7241 7.68289 19.4507 7.40727 19.2652C7.04352 19.0204 6.80785 18.6283 6.80785 18.1864V3.74614C6.80785 3.00426 7.47209 2.40285 8.29147 2.40285Z" fill="#F9F8F8"/>
<path d="M7.40727 19.2652L7.63227 18.9309L7.40727 19.2652ZM7.15304 20.6682L7.01106 21.0453L7.15304 20.6682ZM28.0985 19.2608L28.3253 19.5939L28.0985 19.2608ZM27.2077 1.99987H8.29147V2.80584H27.2077V1.99987ZM29.0943 3.74614C29.0943 2.74496 28.211 1.99987 27.2077 1.99987V2.80584C27.8431 2.80584 28.2884 3.26357 28.2884 3.74614H29.0943ZM29.0943 18.1864V3.74614H28.2884V18.1864H29.0943ZM28.3253 19.5939C28.7817 19.2832 29.0943 18.775 29.0943 18.1864H28.2884C28.2884 18.4764 28.1353 18.7482 27.8717 18.9276L28.3253 19.5939ZM28.5036 21.0395C29.7021 20.5818 30.5779 19.4918 30.5779 18.1864H29.772C29.772 19.1087 29.1506 19.9297 28.2161 20.2865L28.5036 21.0395ZM30.5779 18.1864V3.74614H29.772V18.1864H30.5779ZM30.5779 3.74614C30.5779 2.00308 29.0304 0.656585 27.2077 0.656585V1.46256C28.6625 1.46256 29.772 2.52169 29.772 3.74614H30.5779ZM27.2077 0.656585H8.29147V1.46256H27.2077V0.656585ZM8.29147 0.656585C6.46875 0.656585 4.92123 2.00308 4.92123 3.74614H5.7272C5.7272 2.52169 6.83665 1.46256 8.29147 1.46256V0.656585ZM4.92123 3.74614V18.1864H5.7272V3.74614H4.92123ZM4.92123 18.1864C4.92123 19.4974 5.80459 20.5911 7.01106 21.0453L7.29503 20.291C6.3539 19.9367 5.7272 19.1126 5.7272 18.1864H4.92123ZM6.40486 18.1864C6.40486 18.7786 6.72133 19.2893 7.18227 19.5995L7.63227 18.9309C7.36571 18.7515 7.21083 18.4781 7.21083 18.1864H6.40486ZM6.40486 3.74614V18.1864H7.21083V3.74614H6.40486ZM8.29147 1.99987C7.28814 1.99987 6.40486 2.74496 6.40486 3.74614H7.21083C7.21083 3.26357 7.65604 2.80584 8.29147 2.80584V1.99987ZM8.32879 20.0563C8.32879 19.52 7.94462 19.1411 7.63227 18.9309L7.18227 19.5995C7.42116 19.7603 7.52282 19.9283 7.52282 20.0563H8.32879ZM7.01106 21.0453C7.35698 21.1755 7.70053 21.0905 7.94522 20.8884C8.18352 20.6915 8.32879 20.3861 8.32879 20.0563H7.52282C7.52282 20.1514 7.48052 20.2268 7.43184 20.2671C7.38955 20.302 7.34673 20.3105 7.29503 20.291L7.01106 21.0453ZM27.1809 20.051C27.1809 20.3819 27.3269 20.6881 27.5663 20.8852C27.8121 21.0875 28.1571 21.1718 28.5036 21.0395L28.2161 20.2865C28.1641 20.3064 28.121 20.2979 28.0785 20.2629C28.0295 20.2226 27.9868 20.1467 27.9868 20.051H27.1809ZM27.8717 18.9276C27.5618 19.1386 27.1809 19.5169 27.1809 20.051H27.9868C27.9868 19.923 28.0879 19.7555 28.3253 19.5939L27.8717 18.9276Z" fill="#F9F8F8" mask="url(#path-3-outside-1_607_138)"/>
</svg>
