<svg width="139" height="138" viewBox="0 0 139 138" fill="none" xmlns="http://www.w3.org/2000/svg">
<g clip-path="url(#clip0_294_1291)">
<path d="M69.5 138C107.608 138 138.5 107.108 138.5 69C138.5 30.8924 107.608 0 69.5 0C31.3924 0 0.5 30.8924 0.5 69C0.5 107.108 31.3924 138 69.5 138Z" fill="white"/>
<path d="M75.0254 101.401V82.4453C75.0254 81.4214 75.4322 80.4394 76.1561 79.7154C76.88 78.9915 77.8621 78.5847 78.886 78.5847H96.4991" fill="white"/>
<path d="M75.0254 101.401V82.4453C75.0254 81.4214 75.4322 80.4394 76.1561 79.7154C76.88 78.9915 77.8621 78.5847 78.886 78.5847H96.4991" stroke="url(#paint0_linear_294_1291)" stroke-width="4.02632" stroke-linecap="round" stroke-linejoin="round"/>
<path d="M75.0254 101.401V82.4453C75.0254 81.4214 75.4322 80.4394 76.1561 79.7154C76.88 78.9915 77.8621 78.5847 78.886 78.5847H96.4991" stroke="url(#paint1_linear_294_1291)" stroke-width="4.02632" stroke-linecap="round" stroke-linejoin="round"/>
<path d="M74.6924 101.401H48.9C47.9983 101.401 47.1335 101.024 46.4958 100.353C45.8582 99.6813 45.5 98.771 45.5 97.8217V47.2692C45.5 46.3199 45.8582 45.4096 46.4958 44.7384C47.1335 44.0673 47.9983 43.6902 48.9 43.6902H93.1C94.0017 43.6902 94.8665 44.0673 95.5042 44.7384C96.1418 45.4096 96.5 46.3199 96.5 47.2692V78.4453C96.4999 79.3939 96.1419 80.3035 95.505 80.9744L77.095 100.353C76.4577 101.024 75.5935 101.4 74.6924 101.401Z" stroke="url(#paint2_linear_294_1291)" stroke-width="4.02632" stroke-linecap="round" stroke-linejoin="round"/>
<path d="M69.6574 73.2166L62.9642 82.8348C62.7268 83.1467 62.4257 83.4062 62.0804 83.5968C61.7349 83.7872 61.353 83.9045 60.9589 83.941C60.5649 83.9776 60.1675 83.9326 59.7921 83.8088C59.4167 83.6851 59.0718 83.4854 58.7795 83.2226L56.2363 79.4265" stroke="url(#paint3_linear_294_1291)" stroke-width="4.02632" stroke-linecap="round" stroke-linejoin="round"/>
<path d="M56.2363 54.427H85.7626" stroke="url(#paint4_linear_294_1291)" stroke-width="2.68421" stroke-linecap="round"/>
<path d="M56.2363 63.8217H75.0258" stroke="url(#paint5_linear_294_1291)" stroke-width="2.68421" stroke-linecap="round"/>
</g>
<defs>
<linearGradient id="paint0_linear_294_1291" x1="75.0254" y1="101.401" x2="96.5004" y2="101.399" gradientUnits="userSpaceOnUse">
<stop offset="0.0184" stop-color="#AE67FA"/>
<stop offset="1" stop-color="#F49867"/>
</linearGradient>
<linearGradient id="paint1_linear_294_1291" x1="75.0254" y1="101.401" x2="96.5004" y2="101.399" gradientUnits="userSpaceOnUse">
<stop offset="0.0184" stop-color="#AE67FA"/>
<stop offset="1" stop-color="#F49867"/>
</linearGradient>
<linearGradient id="paint2_linear_294_1291" x1="45.5" y1="101.401" x2="96.5031" y2="101.398" gradientUnits="userSpaceOnUse">
<stop offset="0.0184" stop-color="#AE67FA"/>
<stop offset="1" stop-color="#F49867"/>
</linearGradient>
<linearGradient id="paint3_linear_294_1291" x1="56.2363" y1="83.9533" x2="69.6582" y2="83.9523" gradientUnits="userSpaceOnUse">
<stop offset="0.0184" stop-color="#AE67FA"/>
<stop offset="1" stop-color="#F49867"/>
</linearGradient>
<linearGradient id="paint4_linear_294_1291" x1="56.2363" y1="55.427" x2="85.7643" y2="55.3744" gradientUnits="userSpaceOnUse">
<stop offset="0.0184" stop-color="#AE67FA"/>
<stop offset="1" stop-color="#F49867"/>
</linearGradient>
<linearGradient id="paint5_linear_294_1291" x1="56.2363" y1="64.8217" x2="75.0269" y2="64.8004" gradientUnits="userSpaceOnUse">
<stop offset="0.0184" stop-color="#AE67FA"/>
<stop offset="1" stop-color="#F49867"/>
</linearGradient>
<clipPath id="clip0_294_1291">
<rect width="138" height="138" fill="white" transform="translate(0.5)"/>
</clipPath>
</defs>
</svg>
