<svg width="42" height="36" viewBox="0 0 42 36" fill="none" xmlns="http://www.w3.org/2000/svg">
<path d="M38.1955 33.7589C39.0145 34.2351 38.6767 35.4883 37.7293 35.4883L3.8599 35.4883C2.91246 35.4883 2.57464 34.2351 3.39371 33.7589L14.8354 27.1068C16.6451 26.0546 18.7012 25.5004 20.7946 25.5004C22.888 25.5004 24.944 26.0546 26.7538 27.1068L38.1955 33.7589Z" fill="#F9F8F8"/>
<path d="M20.7894 9.322V22.7042L19.3092 21.7539C18.5119 21.3455 17.6498 21.0864 16.7609 20.9961L13.0987 20.6191C12.4769 20.5524 12 20.0144 12 19.3665V8.37959C12 7.68456 12.5455 7.12305 13.2207 7.12305H14.3766C16.8029 7.12305 18.8018 7.89268 20.7894 9.322ZM20.7894 22.7042V9.322C22.7769 7.89268 24.7759 7.12305 27.2021 7.12305H28.358C29.0332 7.12305 29.5787 7.68456 29.5787 8.37959V19.3665C29.5787 20.0105 29.1019 20.5524 28.4801 20.6152L24.8178 20.9921C23.9328 21.0825 23.0668 21.3416 22.2695 21.75L20.7894 22.7042Z" fill="#F9F8F8"/>
<mask id="path-3-outside-1_591_20975" maskUnits="userSpaceOnUse" x="5.00391" y="0.129883" width="32" height="25" fill="black">
<rect fill="white" x="5.00391" y="0.129883" width="32" height="25"/>
<path fill-rule="evenodd" clip-rule="evenodd" d="M9.53396 2.72795H32.0381C33.0129 2.72795 33.8031 3.44343 33.8031 4.32601V21.5052C33.8031 22.0274 33.5264 22.4912 33.0986 22.7828C32.7732 23.0045 32.4868 23.3291 32.4868 23.7229C32.4868 24.2306 32.9361 24.6322 33.4103 24.4509C34.6783 23.9661 35.5681 22.8297 35.5681 21.5052V4.32601C35.5681 2.56084 33.9877 1.12988 32.0381 1.12988H9.53396C7.58437 1.12988 6.00391 2.56084 6.00391 4.32601V21.5052C6.00391 22.8365 6.90289 23.9777 8.18121 24.4583C8.65414 24.6361 9.10017 24.2356 9.10017 23.7304C9.10017 23.335 8.81094 23.0097 8.48282 22.7891C8.04964 22.4979 7.76893 22.0312 7.76893 21.5052V4.32601C7.76893 3.44343 8.55916 2.72795 9.53396 2.72795Z"/>
</mask>
<path fill-rule="evenodd" clip-rule="evenodd" d="M9.53396 2.72795H32.0381C33.0129 2.72795 33.8031 3.44343 33.8031 4.32601V21.5052C33.8031 22.0274 33.5264 22.4912 33.0986 22.7828C32.7732 23.0045 32.4868 23.3291 32.4868 23.7229C32.4868 24.2306 32.9361 24.6322 33.4103 24.4509C34.6783 23.9661 35.5681 22.8297 35.5681 21.5052V4.32601C35.5681 2.56084 33.9877 1.12988 32.0381 1.12988H9.53396C7.58437 1.12988 6.00391 2.56084 6.00391 4.32601V21.5052C6.00391 22.8365 6.90289 23.9777 8.18121 24.4583C8.65414 24.6361 9.10017 24.2356 9.10017 23.7304C9.10017 23.335 8.81094 23.0097 8.48282 22.7891C8.04964 22.4979 7.76893 22.0312 7.76893 21.5052V4.32601C7.76893 3.44343 8.55916 2.72795 9.53396 2.72795Z" fill="#F9F8F8"/>
<path d="M8.48282 22.7891L8.7933 22.3273L8.48282 22.7891ZM8.18121 24.4583L7.98538 24.9792L8.18121 24.4583ZM33.4103 24.4509L33.2116 23.9311L33.4103 24.4509ZM33.0986 22.7828L32.7851 22.3229L33.0986 22.7828ZM32.0381 2.17145H9.53396V3.28445H32.0381V2.17145ZM34.3596 4.32601C34.3596 3.08534 33.2669 2.17145 32.0381 2.17145V3.28445C32.7588 3.28445 33.2466 3.80152 33.2466 4.32601H34.3596ZM34.3596 21.5052V4.32601H33.2466V21.5052H34.3596ZM33.412 23.2426C33.9728 22.8604 34.3596 22.2335 34.3596 21.5052H33.2466C33.2466 21.8214 33.08 22.122 32.7851 22.3229L33.412 23.2426ZM33.6091 24.9707C35.0591 24.4162 36.1246 23.0941 36.1246 21.5052H35.0116C35.0116 22.5653 34.2974 23.5159 33.2116 23.9311L33.6091 24.9707ZM36.1246 21.5052V4.32601H35.0116V21.5052H36.1246ZM36.1246 4.32601C36.1246 2.20275 34.2417 0.57338 32.0381 0.57338V1.68639C33.7336 1.68639 35.0116 2.91893 35.0116 4.32601H36.1246ZM32.0381 0.57338H9.53396V1.68639H32.0381V0.57338ZM9.53396 0.57338C7.33034 0.57338 5.4474 2.20275 5.4474 4.32601H6.56041C6.56041 2.91893 7.83839 1.68639 9.53396 1.68639V0.57338ZM5.4474 4.32601V21.5052H6.56041V4.32601H5.4474ZM5.4474 21.5052C5.4474 23.1023 6.52375 24.4297 7.98538 24.9792L8.37704 23.9374C7.28204 23.5257 6.56041 22.5707 6.56041 21.5052H5.4474ZM7.21243 21.5052C7.21243 22.2388 7.60484 22.8694 8.17234 23.251L8.7933 22.3273C8.49444 22.1264 8.32544 21.8236 8.32544 21.5052H7.21243ZM7.21243 4.32601V21.5052H8.32544V4.32601H7.21243ZM9.53396 2.17145C8.30514 2.17145 7.21243 3.08534 7.21243 4.32601H8.32544C8.32544 3.80152 8.81319 3.28445 9.53396 3.28445V2.17145ZM9.65667 23.7304C9.65667 23.0529 9.1722 22.582 8.7933 22.3273L8.17234 23.251C8.44969 23.4374 8.54366 23.6171 8.54366 23.7304H9.65667ZM7.98538 24.9792C8.42497 25.1444 8.86228 25.0359 9.17259 24.7794C9.4741 24.5302 9.65667 24.145 9.65667 23.7304H8.54366C8.54366 23.821 8.50322 23.8887 8.46348 23.9215C8.44496 23.9368 8.43006 23.9421 8.42116 23.9437C8.41421 23.945 8.40103 23.9464 8.37704 23.9374L7.98538 24.9792ZM31.9303 23.7229C31.9303 24.1391 32.114 24.5256 32.4171 24.775C32.7291 25.0317 33.1686 25.1391 33.6091 24.9707L33.2116 23.9311C33.1873 23.9404 33.174 23.939 33.167 23.9378C33.158 23.9361 33.143 23.9309 33.1243 23.9155C33.0842 23.8825 33.0433 23.8143 33.0433 23.7229H31.9303ZM32.7851 22.3229C32.4098 22.5788 31.9303 23.0489 31.9303 23.7229H33.0433C33.0433 23.6094 33.1367 23.4303 33.412 23.2426L32.7851 22.3229Z" fill="#F9F8F8" mask="url(#path-3-outside-1_591_20975)"/>
</svg>
