<svg width="16" height="21" viewBox="0 0 16 21" fill="none" xmlns="http://www.w3.org/2000/svg">
<path d="M7.58867 10.2486C10.126 10.2486 12.1773 8.16533 12.1773 5.58864C12.1773 3.01195 10.126 0.928711 7.58867 0.928711C5.05138 0.928711 3 3.01195 3 5.58864C3 8.16533 5.05138 10.2486 7.58867 10.2486ZM7.58867 2.57331C9.23521 2.57331 10.5579 3.91653 10.5579 5.58869C10.5579 7.2608 9.23526 8.60406 7.58867 8.60406C5.94208 8.60406 4.6194 7.26085 4.6194 5.58869C4.6194 3.91638 5.94208 2.57331 7.58867 2.57331Z" fill="#81AFDD"/>
<path d="M1.32587 20.281H13.8234C14.1743 20.281 14.5251 20.1166 14.7682 19.8699C15.0111 19.5957 15.1461 19.2395 15.1192 18.8558C14.8222 14.5247 11.5832 11.2354 7.56128 11.2354C3.53936 11.2354 0.30031 14.4974 0.00339312 18.8558C-0.0235314 19.2395 0.111281 19.5959 0.354353 19.8699C0.624166 20.1439 0.975131 20.281 1.32589 20.281H1.32587ZM7.58812 12.8799C10.6383 12.8799 13.1486 15.3195 13.4995 18.6363L1.67677 18.6362C2.02773 15.3468 4.53793 12.8797 7.58812 12.8797V12.8799Z" fill="#81AFDD"/>
</svg>
